M48
;Layer_Color=9474304
;FILE_FORMAT=4:4
METRIC,LZ
;TYPE=PLATED
T01F00S00C0.7000
T02F00S00C0.7112
T03F00S00C0.7800
T04F00S00C0.8000
T05F00S00C0.8500
T06F00S00C0.9000
T07F00S00C1.0000
T08F00S00C1.0200
T09F00S00C1.2500
%
T01
X0104775Y0100965
Y0102965
X011049Y0104735
Y0099735
T02
X0053975Y0095885
X0057785Y0098425
X0061595Y0099695
X0062865Y009779
X0065405
Y009398
X00666545Y00888795
X006985Y0085725
X006604Y0106045
X0061595Y0107315
X005842Y0106045
X006096Y011303
X0075565Y0106045
X008763Y0090805
X00889Y00889
X0113665Y0111125
Y0118745
X0114935Y0117475
X011811Y011557
X0114935Y012065
X005969Y0120015
T03
X0112395Y0083025
X0114935
X0117475
Y0090965
X0114935
X0112395
X0120015
X0122555
X0125095
X0127635
X0130175
Y0083025
X0127635
X0125095
X0122555
X0120015
T04
X005842Y0095885
X006096
X0069215
X0071755
X0097155
X0099695
T05
X0043125Y0095885
Y0100965
Y0106045
Y0111125
Y0116205
X0052125
Y0111125
Y0106045
Y0100965
Y0095885
X0071755Y0104085
Y0113085
X008001
X0088265
X009652
Y0104085
X0088265
X008001
X011684
Y0113085
X0125095
X013335
Y0104085
X0125095
X0052125Y0121285
X0043125
T06
X0045085Y0083185
X0047625
X0050165
X0052705
X0055245
X0057785
X0060325
X0067945
X0070485
X0073025
X0075565
X0078105
Y0090805
X0075565
X0073025
X0070485
X0067945
X0060325
X0057785
X0055245
X0052705
X0050165
X0047625
X0045085
X005588Y0100965
Y0103505
Y0106045
Y0108585
Y0113665
Y0116205
Y0118745
X00635
Y0116205
Y0113665
Y0108585
Y0106045
Y0103505
Y0100965
X0080645Y0090805
X0083185
X0090805
X0093345
X0095885
X0098425
X0100965
X0103505
X0106045
Y0083185
X0103505
X0100965
X0098425
X0095885
X0093345
X0090805
X0083185
X0080645
X00635Y0121285
X005588
T07
X010414Y010922
X010668
X010922
T08
X0104775Y012319
X0107315
X0109855
X0112395
X0114935
X0117475
T09
X0071755Y0118745
X008001
X0088265
X009652
X0125095
X013335
Y0121285
X0125095
X009652
X0088265
X008001
X0071755
M30
