G04*
G04 #@! TF.GenerationSoftware,Altium Limited,Altium Designer,24.2.2 (26)*
G04*
G04 Layer_Color=128*
%FSLAX44Y44*%
%MOMM*%
G71*
G04*
G04 #@! TF.SameCoordinates,B633CA84-50E2-4AB7-B583-E53219F5B88E*
G04*
G04*
G04 #@! TF.FilePolarity,Positive*
G04*
G01*
G75*
%ADD15C,0.1270*%
D15*
X713300Y1130850D02*
X721800D01*
X717550Y1126600D02*
Y1135100D01*
X713300Y1040850D02*
X721800D01*
X717550Y1036600D02*
Y1045100D01*
X1120050Y909650D02*
X1127850D01*
X1123950Y905750D02*
Y913550D01*
X1145450Y909650D02*
X1153250D01*
X1149350Y905750D02*
Y913550D01*
X1170850Y909650D02*
X1178650D01*
X1174750Y905750D02*
Y913550D01*
X1196250Y909650D02*
X1204050D01*
X1200150Y905750D02*
Y913550D01*
X1221650Y909650D02*
X1229450D01*
X1225550Y905750D02*
Y913550D01*
X1247050Y909650D02*
X1254850D01*
X1250950Y905750D02*
Y913550D01*
X1272450Y909650D02*
X1280250D01*
X1276350Y905750D02*
Y913550D01*
X1297850Y909650D02*
X1305650D01*
X1301750Y905750D02*
Y913550D01*
X1297850Y830250D02*
X1305650D01*
X1301750Y826350D02*
Y834150D01*
X1272450Y830250D02*
X1280250D01*
X1276350Y826350D02*
Y834150D01*
X1247050Y830250D02*
X1254850D01*
X1250950Y826350D02*
Y834150D01*
X1221650Y830250D02*
X1229450D01*
X1225550Y826350D02*
Y834150D01*
X1196250Y830250D02*
X1204050D01*
X1200150Y826350D02*
Y834150D01*
X1170850Y830250D02*
X1178650D01*
X1174750Y826350D02*
Y834150D01*
X1145450Y830250D02*
X1153250D01*
X1149350Y826350D02*
Y834150D01*
X1120050Y830250D02*
X1127850D01*
X1123950Y826350D02*
Y834150D01*
X1169650Y1231900D02*
X1179850D01*
X1174750Y1226800D02*
Y1237000D01*
X1144250Y1231900D02*
X1154450D01*
X1149350Y1226800D02*
Y1237000D01*
X1118850Y1231900D02*
X1129050D01*
X1123950Y1226800D02*
Y1237000D01*
X1093450Y1231900D02*
X1103650D01*
X1098550Y1226800D02*
Y1237000D01*
X1068050Y1231900D02*
X1078250D01*
X1073150Y1226800D02*
Y1237000D01*
X1042650Y1231900D02*
X1052850D01*
X1047750Y1226800D02*
Y1237000D01*
X1101400Y1047350D02*
X1108400D01*
X1104900Y1043850D02*
Y1050850D01*
X1101400Y997350D02*
X1108400D01*
X1104900Y993850D02*
Y1000850D01*
X1036400Y1092200D02*
X1046400D01*
X1041400Y1087200D02*
Y1097200D01*
X1061800Y1092200D02*
X1071800D01*
X1066800Y1087200D02*
Y1097200D01*
X1087200Y1092200D02*
X1097200D01*
X1092200Y1087200D02*
Y1097200D01*
X1044250Y1029650D02*
X1051250D01*
X1047750Y1026150D02*
Y1033150D01*
X1044250Y1009650D02*
X1051250D01*
X1047750Y1006150D02*
Y1013150D01*
X1164150Y1130850D02*
X1172650D01*
X1168400Y1126600D02*
Y1135100D01*
X1164150Y1040850D02*
X1172650D01*
X1168400Y1036600D02*
Y1045100D01*
X992950Y958850D02*
X1000950D01*
X996950Y954850D02*
Y962850D01*
X967550Y958850D02*
X975550D01*
X971550Y954850D02*
Y962850D01*
X713550Y958850D02*
X721550D01*
X717550Y954850D02*
Y962850D01*
X688150Y958850D02*
X696150D01*
X692150Y954850D02*
Y962850D01*
X903550Y831850D02*
X912550D01*
X908050Y827350D02*
Y836350D01*
X928950Y831850D02*
X937950D01*
X933450Y827350D02*
Y836350D01*
X954350Y831850D02*
X963350D01*
X958850Y827350D02*
Y836350D01*
X979750Y831850D02*
X988750D01*
X984250Y827350D02*
Y836350D01*
X1005150Y831850D02*
X1014150D01*
X1009650Y827350D02*
Y836350D01*
X1030550Y831850D02*
X1039550D01*
X1035050Y827350D02*
Y836350D01*
X1055950Y831850D02*
X1064950D01*
X1060450Y827350D02*
Y836350D01*
X903550Y908050D02*
X912550D01*
X908050Y903550D02*
Y912550D01*
X928950Y908050D02*
X937950D01*
X933450Y903550D02*
Y912550D01*
X954350Y908050D02*
X963350D01*
X958850Y903550D02*
Y912550D01*
X979750Y908050D02*
X988750D01*
X984250Y903550D02*
Y912550D01*
X1005150Y908050D02*
X1014150D01*
X1009650Y903550D02*
Y912550D01*
X1030550Y908050D02*
X1039550D01*
X1035050Y903550D02*
Y912550D01*
X1055950Y908050D02*
X1064950D01*
X1060450Y903550D02*
Y912550D01*
X674950Y831850D02*
X683950D01*
X679450Y827350D02*
Y836350D01*
X700350Y831850D02*
X709350D01*
X704850Y827350D02*
Y836350D01*
X725750Y831850D02*
X734750D01*
X730250Y827350D02*
Y836350D01*
X751150Y831850D02*
X760150D01*
X755650Y827350D02*
Y836350D01*
X776550Y831850D02*
X785550D01*
X781050Y827350D02*
Y836350D01*
X801950Y831850D02*
X810950D01*
X806450Y827350D02*
Y836350D01*
X827350Y831850D02*
X836350D01*
X831850Y827350D02*
Y836350D01*
X674950Y908050D02*
X683950D01*
X679450Y903550D02*
Y912550D01*
X700350Y908050D02*
X709350D01*
X704850Y903550D02*
Y912550D01*
X725750Y908050D02*
X734750D01*
X730250Y903550D02*
Y912550D01*
X751150Y908050D02*
X760150D01*
X755650Y903550D02*
Y912550D01*
X776550Y908050D02*
X785550D01*
X781050Y903550D02*
Y912550D01*
X801950Y908050D02*
X810950D01*
X806450Y903550D02*
Y912550D01*
X827350Y908050D02*
X836350D01*
X831850Y903550D02*
Y912550D01*
X446350Y831850D02*
X455350D01*
X450850Y827350D02*
Y836350D01*
X471750Y831850D02*
X480750D01*
X476250Y827350D02*
Y836350D01*
X497150Y831850D02*
X506150D01*
X501650Y827350D02*
Y836350D01*
X522550Y831850D02*
X531550D01*
X527050Y827350D02*
Y836350D01*
X547950Y831850D02*
X556950D01*
X552450Y827350D02*
Y836350D01*
X573350Y831850D02*
X582350D01*
X577850Y827350D02*
Y836350D01*
X598750Y831850D02*
X607750D01*
X603250Y827350D02*
Y836350D01*
X446350Y908050D02*
X455350D01*
X450850Y903550D02*
Y912550D01*
X471750Y908050D02*
X480750D01*
X476250Y903550D02*
Y912550D01*
X497150Y908050D02*
X506150D01*
X501650Y903550D02*
Y912550D01*
X522550Y908050D02*
X531550D01*
X527050Y903550D02*
Y912550D01*
X547950Y908050D02*
X556950D01*
X552450Y903550D02*
Y912550D01*
X573350Y908050D02*
X582350D01*
X577850Y903550D02*
Y912550D01*
X598750Y908050D02*
X607750D01*
X603250Y903550D02*
Y912550D01*
X960950Y1130850D02*
X969450D01*
X965200Y1126600D02*
Y1135100D01*
X960950Y1040850D02*
X969450D01*
X965200Y1036600D02*
Y1045100D01*
X1327250Y1212850D02*
X1339750D01*
X1333500Y1206600D02*
Y1219100D01*
X1327250Y1187450D02*
X1339750D01*
X1333500Y1181200D02*
Y1193700D01*
X1244700Y1212850D02*
X1257200D01*
X1250950Y1206600D02*
Y1219100D01*
X1244700Y1187450D02*
X1257200D01*
X1250950Y1181200D02*
Y1193700D01*
X1329250Y1130850D02*
X1337750D01*
X1333500Y1126600D02*
Y1135100D01*
X1329250Y1040850D02*
X1337750D01*
X1333500Y1036600D02*
Y1045100D01*
X1246700Y1130850D02*
X1255200D01*
X1250950Y1126600D02*
Y1135100D01*
X1246700Y1040850D02*
X1255200D01*
X1250950Y1036600D02*
Y1045100D01*
X958950Y1212850D02*
X971450D01*
X965200Y1206600D02*
Y1219100D01*
X958950Y1187450D02*
X971450D01*
X965200Y1181200D02*
Y1193700D01*
X876400Y1212850D02*
X888900D01*
X882650Y1206600D02*
Y1219100D01*
X876400Y1187450D02*
X888900D01*
X882650Y1181200D02*
Y1193700D01*
X793850Y1212850D02*
X806350D01*
X800100Y1206600D02*
Y1219100D01*
X793850Y1187450D02*
X806350D01*
X800100Y1181200D02*
Y1193700D01*
X711300Y1212850D02*
X723800D01*
X717550Y1206600D02*
Y1219100D01*
X711300Y1187450D02*
X723800D01*
X717550Y1181200D02*
Y1193700D01*
X878400Y1130850D02*
X886900D01*
X882650Y1126600D02*
Y1135100D01*
X878400Y1040850D02*
X886900D01*
X882650Y1036600D02*
Y1045100D01*
X795850Y1130850D02*
X804350D01*
X800100Y1126600D02*
Y1135100D01*
X795850Y1040850D02*
X804350D01*
X800100Y1036600D02*
Y1045100D01*
X630500Y1009650D02*
X639500D01*
X635000Y1005150D02*
Y1014150D01*
X630500Y1035050D02*
X639500D01*
X635000Y1030550D02*
Y1039550D01*
X630500Y1060450D02*
X639500D01*
X635000Y1055950D02*
Y1064950D01*
X630500Y1085850D02*
X639500D01*
X635000Y1081350D02*
Y1090350D01*
X554300Y1009650D02*
X563300D01*
X558800Y1005150D02*
Y1014150D01*
X554300Y1035050D02*
X563300D01*
X558800Y1030550D02*
Y1039550D01*
X554300Y1060450D02*
X563300D01*
X558800Y1055950D02*
Y1064950D01*
X554300Y1085850D02*
X563300D01*
X558800Y1081350D02*
Y1090350D01*
X630500Y1136650D02*
X639500D01*
X635000Y1132150D02*
Y1141150D01*
X630500Y1162050D02*
X639500D01*
X635000Y1157550D02*
Y1166550D01*
X630500Y1187450D02*
X639500D01*
X635000Y1182950D02*
Y1191950D01*
X630500Y1212850D02*
X639500D01*
X635000Y1208350D02*
Y1217350D01*
X554300Y1136650D02*
X563300D01*
X558800Y1132150D02*
Y1141150D01*
X554300Y1162050D02*
X563300D01*
X558800Y1157550D02*
Y1166550D01*
X554300Y1187450D02*
X563300D01*
X558800Y1182950D02*
Y1191950D01*
X554300Y1212850D02*
X563300D01*
X558800Y1208350D02*
Y1217350D01*
X517000Y958850D02*
X525500D01*
X521250Y954600D02*
Y963100D01*
X427000Y958850D02*
X435500D01*
X431250Y954600D02*
Y963100D01*
X517000Y1009650D02*
X525500D01*
X521250Y1005400D02*
Y1013900D01*
X427000Y1009650D02*
X435500D01*
X431250Y1005400D02*
Y1013900D01*
X517000Y1060450D02*
X525500D01*
X521250Y1056200D02*
Y1064700D01*
X427000Y1060450D02*
X435500D01*
X431250Y1056200D02*
Y1064700D01*
X517000Y1111250D02*
X525500D01*
X521250Y1107000D02*
Y1115500D01*
X427000Y1111250D02*
X435500D01*
X431250Y1107000D02*
Y1115500D01*
X517000Y1162050D02*
X525500D01*
X521250Y1157800D02*
Y1166300D01*
X427000Y1162050D02*
X435500D01*
X431250Y1157800D02*
Y1166300D01*
X517000Y1212850D02*
X525500D01*
X521250Y1208600D02*
Y1217100D01*
X427000Y1212850D02*
X435500D01*
X431250Y1208600D02*
Y1217100D01*
X605600Y958850D02*
X613600D01*
X609600Y954850D02*
Y962850D01*
X580200Y958850D02*
X588200D01*
X584200Y954850D02*
Y962850D01*
X606044Y1130300D02*
X613156D01*
X609600Y1126744D02*
Y1133856D01*
X694944Y857250D02*
X702056D01*
X698500Y853694D02*
Y860806D01*
X662989Y888795D02*
X670101D01*
X666545Y885239D02*
Y892351D01*
X885444Y889000D02*
X892556D01*
X889000Y885444D02*
Y892556D01*
X625094Y977900D02*
X632206D01*
X628650Y974344D02*
Y981456D01*
X1133094Y1187450D02*
X1140206D01*
X1136650Y1183894D02*
Y1191006D01*
X1145794Y1174750D02*
X1152906D01*
X1149350Y1171194D02*
Y1178306D01*
X1133094Y1111250D02*
X1140206D01*
X1136650Y1107694D02*
Y1114806D01*
X1145794Y1206500D02*
X1152906D01*
X1149350Y1202944D02*
Y1210056D01*
X650494Y977900D02*
X657606D01*
X654050Y974344D02*
Y981456D01*
X752094Y1060450D02*
X759206D01*
X755650Y1056894D02*
Y1064006D01*
X656844Y1060450D02*
X663956D01*
X660400Y1056894D02*
Y1064006D01*
X650494Y939800D02*
X657606D01*
X654050Y936244D02*
Y943356D01*
X612394Y996950D02*
X619506D01*
X615950Y993394D02*
Y1000506D01*
X612394Y1073150D02*
X619506D01*
X615950Y1069594D02*
Y1076706D01*
X580644Y1060450D02*
X587756D01*
X584200Y1056894D02*
Y1064006D01*
X536194Y958850D02*
X543306D01*
X539750Y955294D02*
Y962406D01*
X574294Y984250D02*
X581406D01*
X577850Y980694D02*
Y987806D01*
X593344Y1200150D02*
X600456D01*
X596900Y1196594D02*
Y1203706D01*
X872744Y908050D02*
X879856D01*
X876300Y904494D02*
Y911606D01*
X1177544Y1155700D02*
X1184656D01*
X1181100Y1152144D02*
Y1159256D01*
M02*
