G04*
G04 #@! TF.GenerationSoftware,Altium Limited,Altium Designer,24.2.2 (26)*
G04*
G04 Layer_Color=16711935*
%FSLAX44Y44*%
%MOMM*%
G71*
G04*
G04 #@! TF.SameCoordinates,B633CA84-50E2-4AB7-B583-E53219F5B88E*
G04*
G04*
G04 #@! TF.FilePolarity,Positive*
G04*
G01*
G75*
%ADD10C,0.2000*%
G36*
X1109669Y1231893D02*
X1109738Y1231886D01*
X1109822Y1231872D01*
X1109912Y1231859D01*
X1110009Y1231838D01*
X1110113Y1231817D01*
X1110217Y1231782D01*
X1110328Y1231748D01*
X1110432Y1231699D01*
X1110543Y1231644D01*
X1110640Y1231581D01*
X1110737Y1231505D01*
X1110827Y1231422D01*
X1110834Y1231415D01*
X1110848Y1231401D01*
X1110869Y1231373D01*
X1110896Y1231331D01*
X1110931Y1231283D01*
X1110966Y1231221D01*
X1111007Y1231144D01*
X1111049Y1231061D01*
X1111084Y1230964D01*
X1111125Y1230860D01*
X1111160Y1230742D01*
X1111195Y1230610D01*
X1111215Y1230472D01*
X1111236Y1230319D01*
X1111250Y1230160D01*
Y1229986D01*
X1110487Y1229875D01*
Y1229882D01*
Y1229910D01*
X1110480Y1229945D01*
Y1229993D01*
X1110473Y1230056D01*
X1110467Y1230125D01*
X1110446Y1230277D01*
X1110411Y1230444D01*
X1110362Y1230610D01*
X1110335Y1230687D01*
X1110300Y1230763D01*
X1110258Y1230825D01*
X1110217Y1230881D01*
X1110203Y1230895D01*
X1110168Y1230922D01*
X1110113Y1230964D01*
X1110037Y1231012D01*
X1109939Y1231061D01*
X1109822Y1231103D01*
X1109690Y1231130D01*
X1109537Y1231144D01*
X1109482D01*
X1109426Y1231137D01*
X1109350Y1231124D01*
X1109260Y1231110D01*
X1109170Y1231082D01*
X1109080Y1231047D01*
X1108989Y1230999D01*
X1108976Y1230992D01*
X1108948Y1230971D01*
X1108913Y1230936D01*
X1108858Y1230895D01*
X1108809Y1230839D01*
X1108754Y1230770D01*
X1108705Y1230694D01*
X1108664Y1230603D01*
X1108657Y1230590D01*
X1108650Y1230555D01*
X1108636Y1230492D01*
X1108615Y1230409D01*
X1108601Y1230298D01*
X1108587Y1230160D01*
X1108580Y1230000D01*
X1108574Y1229903D01*
Y1229806D01*
Y1225396D01*
X1107728D01*
Y1229758D01*
Y1229764D01*
Y1229792D01*
Y1229834D01*
Y1229889D01*
X1107734Y1229959D01*
Y1230035D01*
X1107741Y1230125D01*
X1107755Y1230215D01*
X1107776Y1230416D01*
X1107811Y1230624D01*
X1107859Y1230825D01*
X1107894Y1230916D01*
X1107929Y1231006D01*
Y1231012D01*
X1107935Y1231026D01*
X1107949Y1231047D01*
X1107963Y1231075D01*
X1108012Y1231158D01*
X1108081Y1231255D01*
X1108164Y1231359D01*
X1108268Y1231470D01*
X1108400Y1231574D01*
X1108546Y1231671D01*
X1108553D01*
X1108567Y1231678D01*
X1108587Y1231692D01*
X1108622Y1231706D01*
X1108657Y1231727D01*
X1108705Y1231741D01*
X1108761Y1231761D01*
X1108823Y1231782D01*
X1108969Y1231831D01*
X1109135Y1231865D01*
X1109322Y1231893D01*
X1109530Y1231900D01*
X1109614D01*
X1109669Y1231893D01*
D02*
G37*
G36*
X1104489Y1226797D02*
X1104503Y1226810D01*
X1104538Y1226845D01*
X1104600Y1226894D01*
X1104690Y1226963D01*
X1104794Y1227046D01*
X1104926Y1227136D01*
X1105072Y1227233D01*
X1105238Y1227337D01*
X1105245D01*
X1105259Y1227351D01*
X1105280Y1227365D01*
X1105314Y1227379D01*
X1105356Y1227407D01*
X1105405Y1227428D01*
X1105516Y1227490D01*
X1105640Y1227552D01*
X1105779Y1227622D01*
X1105925Y1227684D01*
X1106063Y1227740D01*
Y1226984D01*
X1106056Y1226977D01*
X1106036Y1226970D01*
X1106001Y1226949D01*
X1105952Y1226928D01*
X1105897Y1226901D01*
X1105827Y1226859D01*
X1105751Y1226817D01*
X1105675Y1226776D01*
X1105495Y1226665D01*
X1105301Y1226533D01*
X1105099Y1226394D01*
X1104912Y1226235D01*
X1104905Y1226228D01*
X1104891Y1226214D01*
X1104864Y1226193D01*
X1104829Y1226159D01*
X1104794Y1226117D01*
X1104746Y1226075D01*
X1104642Y1225957D01*
X1104524Y1225833D01*
X1104406Y1225687D01*
X1104302Y1225535D01*
X1104212Y1225375D01*
X1103706D01*
Y1231796D01*
X1104489D01*
Y1226797D01*
D02*
G37*
G36*
X1108416Y1022343D02*
X1108506Y1022336D01*
X1108610Y1022329D01*
X1108721Y1022316D01*
X1108845Y1022302D01*
X1108977Y1022281D01*
X1109116Y1022260D01*
X1109414Y1022191D01*
X1109560Y1022142D01*
X1109705Y1022094D01*
X1109858Y1022038D01*
X1109996Y1021969D01*
X1110003Y1021962D01*
X1110031Y1021948D01*
X1110066Y1021927D01*
X1110121Y1021899D01*
X1110184Y1021858D01*
X1110253Y1021809D01*
X1110329Y1021754D01*
X1110419Y1021691D01*
X1110503Y1021615D01*
X1110600Y1021539D01*
X1110690Y1021449D01*
X1110787Y1021352D01*
X1110877Y1021248D01*
X1110967Y1021137D01*
X1111050Y1021012D01*
X1111127Y1020887D01*
X1111134Y1020880D01*
X1111141Y1020852D01*
X1111161Y1020818D01*
X1111189Y1020762D01*
X1111217Y1020700D01*
X1111252Y1020617D01*
X1111286Y1020526D01*
X1111321Y1020429D01*
X1111356Y1020318D01*
X1111390Y1020194D01*
X1111425Y1020069D01*
X1111453Y1019930D01*
X1111501Y1019646D01*
X1111508Y1019493D01*
X1111515Y1019334D01*
Y1019244D01*
X1111508Y1019174D01*
X1111501Y1019091D01*
X1111487Y1018994D01*
X1111473Y1018890D01*
X1111453Y1018772D01*
X1111425Y1018647D01*
X1111397Y1018515D01*
X1111356Y1018384D01*
X1111307Y1018245D01*
X1111252Y1018106D01*
X1111182Y1017975D01*
X1111113Y1017843D01*
X1111023Y1017718D01*
X1111016Y1017711D01*
X1111002Y1017690D01*
X1110974Y1017656D01*
X1110933Y1017614D01*
X1110884Y1017559D01*
X1110822Y1017496D01*
X1110752Y1017434D01*
X1110669Y1017357D01*
X1110579Y1017281D01*
X1110475Y1017205D01*
X1110364Y1017129D01*
X1110239Y1017059D01*
X1110107Y1016983D01*
X1109962Y1016921D01*
X1109809Y1016858D01*
X1109650Y1016803D01*
X1109456Y1017635D01*
X1109463D01*
X1109483Y1017649D01*
X1109525Y1017656D01*
X1109574Y1017676D01*
X1109629Y1017697D01*
X1109691Y1017732D01*
X1109844Y1017801D01*
X1110010Y1017891D01*
X1110184Y1018009D01*
X1110343Y1018134D01*
X1110413Y1018210D01*
X1110475Y1018287D01*
X1110482Y1018294D01*
X1110489Y1018307D01*
X1110503Y1018328D01*
X1110524Y1018363D01*
X1110551Y1018405D01*
X1110579Y1018453D01*
X1110607Y1018509D01*
X1110635Y1018578D01*
X1110662Y1018654D01*
X1110690Y1018730D01*
X1110745Y1018911D01*
X1110780Y1019119D01*
X1110794Y1019230D01*
Y1019417D01*
X1110787Y1019472D01*
X1110780Y1019535D01*
X1110773Y1019611D01*
X1110766Y1019694D01*
X1110752Y1019778D01*
X1110704Y1019979D01*
X1110641Y1020187D01*
X1110600Y1020291D01*
X1110551Y1020395D01*
X1110496Y1020492D01*
X1110433Y1020589D01*
X1110426Y1020596D01*
X1110419Y1020610D01*
X1110399Y1020637D01*
X1110371Y1020672D01*
X1110336Y1020707D01*
X1110288Y1020755D01*
X1110239Y1020804D01*
X1110184Y1020859D01*
X1110114Y1020915D01*
X1110045Y1020977D01*
X1109886Y1021088D01*
X1109698Y1021192D01*
X1109483Y1021282D01*
X1109476D01*
X1109456Y1021289D01*
X1109421Y1021303D01*
X1109379Y1021310D01*
X1109324Y1021324D01*
X1109261Y1021345D01*
X1109185Y1021358D01*
X1109109Y1021379D01*
X1109019Y1021400D01*
X1108922Y1021414D01*
X1108714Y1021449D01*
X1108492Y1021469D01*
X1108256Y1021476D01*
X1108249D01*
X1108221D01*
X1108180D01*
X1108117Y1021469D01*
X1108048D01*
X1107965Y1021462D01*
X1107875Y1021456D01*
X1107771Y1021449D01*
X1107660Y1021435D01*
X1107549Y1021421D01*
X1107306Y1021379D01*
X1107063Y1021317D01*
X1106828Y1021241D01*
X1106821D01*
X1106800Y1021227D01*
X1106772Y1021213D01*
X1106730Y1021199D01*
X1106675Y1021171D01*
X1106620Y1021137D01*
X1106488Y1021060D01*
X1106335Y1020956D01*
X1106190Y1020832D01*
X1106044Y1020679D01*
X1105982Y1020596D01*
X1105919Y1020506D01*
Y1020499D01*
X1105905Y1020485D01*
X1105891Y1020457D01*
X1105871Y1020415D01*
X1105850Y1020367D01*
X1105822Y1020312D01*
X1105801Y1020249D01*
X1105774Y1020180D01*
X1105718Y1020020D01*
X1105670Y1019833D01*
X1105635Y1019632D01*
X1105628Y1019528D01*
X1105621Y1019417D01*
Y1019348D01*
X1105628Y1019299D01*
X1105635Y1019237D01*
X1105642Y1019167D01*
X1105656Y1019084D01*
X1105670Y1019001D01*
X1105718Y1018807D01*
X1105753Y1018710D01*
X1105794Y1018606D01*
X1105843Y1018502D01*
X1105898Y1018405D01*
X1105961Y1018307D01*
X1106030Y1018210D01*
X1106037Y1018204D01*
X1106051Y1018190D01*
X1106072Y1018162D01*
X1106106Y1018127D01*
X1106148Y1018092D01*
X1106204Y1018044D01*
X1106266Y1017995D01*
X1106335Y1017940D01*
X1106419Y1017885D01*
X1106509Y1017829D01*
X1106606Y1017774D01*
X1106717Y1017718D01*
X1106834Y1017670D01*
X1106966Y1017621D01*
X1107105Y1017572D01*
X1107251Y1017538D01*
X1107036Y1016692D01*
X1107022D01*
X1106987Y1016706D01*
X1106938Y1016720D01*
X1106862Y1016747D01*
X1106779Y1016775D01*
X1106675Y1016817D01*
X1106564Y1016858D01*
X1106446Y1016914D01*
X1106314Y1016976D01*
X1106190Y1017046D01*
X1106051Y1017122D01*
X1105919Y1017212D01*
X1105794Y1017309D01*
X1105670Y1017413D01*
X1105552Y1017531D01*
X1105441Y1017656D01*
X1105434Y1017663D01*
X1105420Y1017690D01*
X1105392Y1017725D01*
X1105358Y1017781D01*
X1105316Y1017843D01*
X1105267Y1017926D01*
X1105219Y1018016D01*
X1105170Y1018127D01*
X1105122Y1018245D01*
X1105073Y1018370D01*
X1105025Y1018509D01*
X1104983Y1018661D01*
X1104948Y1018821D01*
X1104921Y1018987D01*
X1104907Y1019160D01*
X1104900Y1019348D01*
Y1019445D01*
X1104907Y1019521D01*
X1104914Y1019604D01*
X1104921Y1019708D01*
X1104934Y1019819D01*
X1104955Y1019944D01*
X1104976Y1020076D01*
X1105004Y1020214D01*
X1105039Y1020353D01*
X1105073Y1020492D01*
X1105122Y1020637D01*
X1105177Y1020776D01*
X1105240Y1020908D01*
X1105316Y1021033D01*
X1105323Y1021040D01*
X1105337Y1021060D01*
X1105358Y1021095D01*
X1105392Y1021137D01*
X1105441Y1021192D01*
X1105489Y1021255D01*
X1105552Y1021324D01*
X1105628Y1021400D01*
X1105711Y1021476D01*
X1105801Y1021560D01*
X1105898Y1021636D01*
X1106009Y1021719D01*
X1106127Y1021802D01*
X1106252Y1021879D01*
X1106391Y1021948D01*
X1106536Y1022017D01*
X1106543Y1022024D01*
X1106571Y1022031D01*
X1106620Y1022045D01*
X1106675Y1022066D01*
X1106751Y1022094D01*
X1106834Y1022121D01*
X1106938Y1022149D01*
X1107049Y1022184D01*
X1107174Y1022211D01*
X1107306Y1022246D01*
X1107445Y1022274D01*
X1107597Y1022295D01*
X1107916Y1022336D01*
X1108083Y1022343D01*
X1108249Y1022350D01*
X1108263D01*
X1108291D01*
X1108346D01*
X1108416Y1022343D01*
D02*
G37*
G36*
X1106744Y1015139D02*
X1106737D01*
X1106717Y1015132D01*
X1106689Y1015125D01*
X1106647Y1015118D01*
X1106599Y1015111D01*
X1106536Y1015090D01*
X1106405Y1015055D01*
X1106259Y1015000D01*
X1106106Y1014924D01*
X1105968Y1014834D01*
X1105905Y1014778D01*
X1105843Y1014723D01*
Y1014716D01*
X1105829Y1014709D01*
X1105815Y1014688D01*
X1105794Y1014660D01*
X1105746Y1014591D01*
X1105697Y1014494D01*
X1105642Y1014376D01*
X1105593Y1014237D01*
X1105559Y1014085D01*
X1105552Y1014001D01*
X1105545Y1013911D01*
Y1013856D01*
X1105552Y1013814D01*
X1105559Y1013766D01*
X1105566Y1013710D01*
X1105600Y1013578D01*
X1105649Y1013426D01*
X1105683Y1013350D01*
X1105725Y1013266D01*
X1105774Y1013183D01*
X1105829Y1013107D01*
X1105891Y1013031D01*
X1105968Y1012954D01*
X1105975Y1012947D01*
X1105988Y1012940D01*
X1106009Y1012920D01*
X1106044Y1012892D01*
X1106093Y1012864D01*
X1106141Y1012830D01*
X1106204Y1012795D01*
X1106273Y1012753D01*
X1106349Y1012719D01*
X1106432Y1012684D01*
X1106529Y1012649D01*
X1106627Y1012621D01*
X1106737Y1012594D01*
X1106855Y1012573D01*
X1106973Y1012566D01*
X1107105Y1012559D01*
X1107112D01*
X1107133D01*
X1107167D01*
X1107216Y1012566D01*
X1107271Y1012573D01*
X1107341Y1012580D01*
X1107410Y1012594D01*
X1107493Y1012608D01*
X1107660Y1012649D01*
X1107840Y1012719D01*
X1107923Y1012760D01*
X1108006Y1012816D01*
X1108090Y1012871D01*
X1108166Y1012940D01*
X1108173Y1012947D01*
X1108180Y1012954D01*
X1108201Y1012982D01*
X1108228Y1013010D01*
X1108256Y1013044D01*
X1108291Y1013093D01*
X1108325Y1013141D01*
X1108367Y1013204D01*
X1108402Y1013273D01*
X1108436Y1013343D01*
X1108499Y1013516D01*
X1108527Y1013606D01*
X1108547Y1013710D01*
X1108554Y1013814D01*
X1108561Y1013925D01*
Y1013988D01*
X1108554Y1014064D01*
X1108540Y1014154D01*
X1108520Y1014265D01*
X1108485Y1014383D01*
X1108443Y1014501D01*
X1108381Y1014619D01*
X1108374Y1014632D01*
X1108353Y1014667D01*
X1108311Y1014723D01*
X1108263Y1014792D01*
X1108194Y1014861D01*
X1108117Y1014944D01*
X1108027Y1015021D01*
X1107930Y1015090D01*
X1108034Y1015825D01*
X1111321Y1015208D01*
Y1012025D01*
X1110572D01*
Y1014584D01*
X1108852Y1014924D01*
X1108859Y1014917D01*
X1108873Y1014896D01*
X1108887Y1014868D01*
X1108915Y1014827D01*
X1108942Y1014771D01*
X1108977Y1014709D01*
X1109019Y1014639D01*
X1109053Y1014556D01*
X1109088Y1014473D01*
X1109130Y1014376D01*
X1109192Y1014175D01*
X1109220Y1014064D01*
X1109241Y1013953D01*
X1109248Y1013835D01*
X1109255Y1013717D01*
Y1013682D01*
X1109248Y1013634D01*
Y1013578D01*
X1109234Y1013509D01*
X1109227Y1013426D01*
X1109206Y1013329D01*
X1109185Y1013232D01*
X1109150Y1013121D01*
X1109116Y1013010D01*
X1109067Y1012892D01*
X1109012Y1012774D01*
X1108942Y1012656D01*
X1108866Y1012538D01*
X1108776Y1012420D01*
X1108672Y1012309D01*
X1108665Y1012302D01*
X1108644Y1012282D01*
X1108610Y1012254D01*
X1108568Y1012219D01*
X1108513Y1012171D01*
X1108436Y1012122D01*
X1108360Y1012074D01*
X1108270Y1012018D01*
X1108166Y1011963D01*
X1108048Y1011914D01*
X1107930Y1011859D01*
X1107791Y1011817D01*
X1107653Y1011782D01*
X1107500Y1011755D01*
X1107341Y1011734D01*
X1107174Y1011727D01*
X1107167D01*
X1107133D01*
X1107091D01*
X1107029Y1011734D01*
X1106952Y1011741D01*
X1106869Y1011755D01*
X1106772Y1011768D01*
X1106661Y1011789D01*
X1106550Y1011817D01*
X1106425Y1011852D01*
X1106301Y1011893D01*
X1106176Y1011942D01*
X1106051Y1011997D01*
X1105919Y1012067D01*
X1105794Y1012143D01*
X1105676Y1012233D01*
X1105670Y1012240D01*
X1105642Y1012261D01*
X1105607Y1012296D01*
X1105559Y1012344D01*
X1105496Y1012406D01*
X1105434Y1012483D01*
X1105358Y1012573D01*
X1105288Y1012677D01*
X1105219Y1012788D01*
X1105143Y1012913D01*
X1105080Y1013051D01*
X1105025Y1013204D01*
X1104969Y1013363D01*
X1104934Y1013537D01*
X1104907Y1013717D01*
X1104900Y1013911D01*
Y1013994D01*
X1104907Y1014057D01*
X1104914Y1014133D01*
X1104928Y1014216D01*
X1104941Y1014313D01*
X1104962Y1014417D01*
X1104983Y1014528D01*
X1105018Y1014646D01*
X1105059Y1014764D01*
X1105108Y1014882D01*
X1105163Y1015000D01*
X1105226Y1015118D01*
X1105302Y1015229D01*
X1105385Y1015340D01*
X1105392Y1015347D01*
X1105406Y1015360D01*
X1105434Y1015388D01*
X1105475Y1015423D01*
X1105524Y1015471D01*
X1105579Y1015520D01*
X1105649Y1015568D01*
X1105732Y1015624D01*
X1105815Y1015679D01*
X1105912Y1015735D01*
X1106023Y1015783D01*
X1106134Y1015832D01*
X1106259Y1015881D01*
X1106391Y1015915D01*
X1106536Y1015943D01*
X1106682Y1015964D01*
X1106744Y1015139D01*
D02*
G37*
G36*
X1051265Y1019643D02*
X1051356Y1019636D01*
X1051460Y1019629D01*
X1051571Y1019615D01*
X1051695Y1019602D01*
X1051827Y1019581D01*
X1051966Y1019560D01*
X1052264Y1019491D01*
X1052410Y1019442D01*
X1052555Y1019393D01*
X1052708Y1019338D01*
X1052847Y1019269D01*
X1052853Y1019262D01*
X1052881Y1019248D01*
X1052916Y1019227D01*
X1052971Y1019199D01*
X1053034Y1019158D01*
X1053103Y1019109D01*
X1053179Y1019054D01*
X1053270Y1018991D01*
X1053353Y1018915D01*
X1053450Y1018839D01*
X1053540Y1018749D01*
X1053637Y1018652D01*
X1053727Y1018548D01*
X1053817Y1018437D01*
X1053901Y1018312D01*
X1053977Y1018187D01*
X1053984Y1018180D01*
X1053991Y1018152D01*
X1054011Y1018118D01*
X1054039Y1018062D01*
X1054067Y1018000D01*
X1054102Y1017917D01*
X1054136Y1017826D01*
X1054171Y1017729D01*
X1054206Y1017618D01*
X1054240Y1017494D01*
X1054275Y1017369D01*
X1054303Y1017230D01*
X1054351Y1016946D01*
X1054358Y1016793D01*
X1054365Y1016634D01*
Y1016544D01*
X1054358Y1016474D01*
X1054351Y1016391D01*
X1054337Y1016294D01*
X1054324Y1016190D01*
X1054303Y1016072D01*
X1054275Y1015947D01*
X1054247Y1015816D01*
X1054206Y1015684D01*
X1054157Y1015545D01*
X1054102Y1015406D01*
X1054032Y1015275D01*
X1053963Y1015143D01*
X1053873Y1015018D01*
X1053866Y1015011D01*
X1053852Y1014990D01*
X1053824Y1014956D01*
X1053783Y1014914D01*
X1053734Y1014859D01*
X1053672Y1014796D01*
X1053602Y1014734D01*
X1053519Y1014658D01*
X1053429Y1014581D01*
X1053325Y1014505D01*
X1053214Y1014429D01*
X1053089Y1014359D01*
X1052957Y1014283D01*
X1052812Y1014221D01*
X1052659Y1014158D01*
X1052500Y1014103D01*
X1052306Y1014935D01*
X1052313D01*
X1052333Y1014949D01*
X1052375Y1014956D01*
X1052423Y1014977D01*
X1052479Y1014997D01*
X1052541Y1015032D01*
X1052694Y1015101D01*
X1052860Y1015191D01*
X1053034Y1015309D01*
X1053193Y1015434D01*
X1053262Y1015510D01*
X1053325Y1015587D01*
X1053332Y1015594D01*
X1053339Y1015608D01*
X1053353Y1015628D01*
X1053373Y1015663D01*
X1053401Y1015704D01*
X1053429Y1015753D01*
X1053457Y1015809D01*
X1053484Y1015878D01*
X1053512Y1015954D01*
X1053540Y1016031D01*
X1053595Y1016211D01*
X1053630Y1016419D01*
X1053644Y1016530D01*
Y1016717D01*
X1053637Y1016772D01*
X1053630Y1016835D01*
X1053623Y1016911D01*
X1053616Y1016994D01*
X1053602Y1017077D01*
X1053554Y1017279D01*
X1053491Y1017487D01*
X1053450Y1017591D01*
X1053401Y1017695D01*
X1053346Y1017792D01*
X1053283Y1017889D01*
X1053276Y1017896D01*
X1053270Y1017910D01*
X1053249Y1017937D01*
X1053221Y1017972D01*
X1053186Y1018007D01*
X1053138Y1018055D01*
X1053089Y1018104D01*
X1053034Y1018159D01*
X1052964Y1018215D01*
X1052895Y1018277D01*
X1052736Y1018388D01*
X1052548Y1018492D01*
X1052333Y1018582D01*
X1052326D01*
X1052306Y1018589D01*
X1052271Y1018603D01*
X1052229Y1018610D01*
X1052174Y1018624D01*
X1052112Y1018645D01*
X1052035Y1018659D01*
X1051959Y1018679D01*
X1051869Y1018700D01*
X1051772Y1018714D01*
X1051564Y1018749D01*
X1051342Y1018770D01*
X1051106Y1018776D01*
X1051099D01*
X1051071D01*
X1051030D01*
X1050967Y1018770D01*
X1050898D01*
X1050815Y1018763D01*
X1050725Y1018756D01*
X1050621Y1018749D01*
X1050510Y1018735D01*
X1050399Y1018721D01*
X1050156Y1018679D01*
X1049913Y1018617D01*
X1049678Y1018541D01*
X1049671D01*
X1049650Y1018527D01*
X1049622Y1018513D01*
X1049581Y1018499D01*
X1049525Y1018471D01*
X1049470Y1018437D01*
X1049338Y1018360D01*
X1049185Y1018256D01*
X1049040Y1018131D01*
X1048894Y1017979D01*
X1048832Y1017896D01*
X1048769Y1017806D01*
Y1017799D01*
X1048755Y1017785D01*
X1048741Y1017757D01*
X1048721Y1017716D01*
X1048700Y1017667D01*
X1048672Y1017611D01*
X1048651Y1017549D01*
X1048624Y1017480D01*
X1048568Y1017320D01*
X1048520Y1017133D01*
X1048485Y1016932D01*
X1048478Y1016828D01*
X1048471Y1016717D01*
Y1016648D01*
X1048478Y1016599D01*
X1048485Y1016537D01*
X1048492Y1016467D01*
X1048506Y1016384D01*
X1048520Y1016301D01*
X1048568Y1016107D01*
X1048603Y1016010D01*
X1048644Y1015906D01*
X1048693Y1015802D01*
X1048748Y1015704D01*
X1048811Y1015608D01*
X1048880Y1015510D01*
X1048887Y1015503D01*
X1048901Y1015490D01*
X1048922Y1015462D01*
X1048956Y1015427D01*
X1048998Y1015393D01*
X1049053Y1015344D01*
X1049116Y1015295D01*
X1049185Y1015240D01*
X1049268Y1015184D01*
X1049359Y1015129D01*
X1049456Y1015073D01*
X1049567Y1015018D01*
X1049685Y1014969D01*
X1049816Y1014921D01*
X1049955Y1014872D01*
X1050100Y1014838D01*
X1049886Y1013992D01*
X1049872D01*
X1049837Y1014006D01*
X1049789Y1014019D01*
X1049712Y1014047D01*
X1049629Y1014075D01*
X1049525Y1014117D01*
X1049414Y1014158D01*
X1049296Y1014214D01*
X1049164Y1014276D01*
X1049040Y1014345D01*
X1048901Y1014422D01*
X1048769Y1014512D01*
X1048644Y1014609D01*
X1048520Y1014713D01*
X1048402Y1014831D01*
X1048291Y1014956D01*
X1048284Y1014963D01*
X1048270Y1014990D01*
X1048242Y1015025D01*
X1048207Y1015080D01*
X1048166Y1015143D01*
X1048117Y1015226D01*
X1048069Y1015316D01*
X1048020Y1015427D01*
X1047972Y1015545D01*
X1047923Y1015670D01*
X1047875Y1015809D01*
X1047833Y1015961D01*
X1047798Y1016121D01*
X1047771Y1016287D01*
X1047757Y1016460D01*
X1047750Y1016648D01*
Y1016745D01*
X1047757Y1016821D01*
X1047764Y1016904D01*
X1047771Y1017008D01*
X1047785Y1017119D01*
X1047805Y1017244D01*
X1047826Y1017376D01*
X1047854Y1017514D01*
X1047888Y1017653D01*
X1047923Y1017792D01*
X1047972Y1017937D01*
X1048027Y1018076D01*
X1048090Y1018208D01*
X1048166Y1018333D01*
X1048173Y1018339D01*
X1048187Y1018360D01*
X1048207Y1018395D01*
X1048242Y1018437D01*
X1048291Y1018492D01*
X1048339Y1018555D01*
X1048402Y1018624D01*
X1048478Y1018700D01*
X1048561Y1018776D01*
X1048651Y1018860D01*
X1048748Y1018936D01*
X1048859Y1019019D01*
X1048977Y1019102D01*
X1049102Y1019179D01*
X1049241Y1019248D01*
X1049386Y1019317D01*
X1049393Y1019324D01*
X1049421Y1019331D01*
X1049470Y1019345D01*
X1049525Y1019366D01*
X1049601Y1019393D01*
X1049685Y1019421D01*
X1049789Y1019449D01*
X1049899Y1019484D01*
X1050024Y1019511D01*
X1050156Y1019546D01*
X1050295Y1019574D01*
X1050447Y1019595D01*
X1050766Y1019636D01*
X1050933Y1019643D01*
X1051099Y1019650D01*
X1051113D01*
X1051141D01*
X1051196D01*
X1051265Y1019643D01*
D02*
G37*
G36*
X1054254Y1010608D02*
Y1009963D01*
X1050107D01*
Y1009096D01*
X1049386D01*
Y1009963D01*
X1047854D01*
Y1010747D01*
X1049386D01*
Y1013534D01*
X1050107D01*
X1054254Y1010608D01*
D02*
G37*
G36*
X1340004Y1197765D02*
X1339997Y1197695D01*
Y1197612D01*
X1339990Y1197529D01*
X1339983Y1197342D01*
X1339962Y1197155D01*
X1339942Y1196967D01*
X1339921Y1196884D01*
X1339907Y1196808D01*
Y1196801D01*
X1339900Y1196780D01*
X1339893Y1196752D01*
X1339879Y1196718D01*
X1339866Y1196669D01*
X1339852Y1196614D01*
X1339803Y1196482D01*
X1339741Y1196336D01*
X1339664Y1196184D01*
X1339567Y1196024D01*
X1339449Y1195872D01*
X1339442Y1195865D01*
X1339429Y1195851D01*
X1339408Y1195823D01*
X1339373Y1195788D01*
X1339332Y1195747D01*
X1339276Y1195698D01*
X1339221Y1195643D01*
X1339151Y1195587D01*
X1339075Y1195525D01*
X1338992Y1195463D01*
X1338902Y1195400D01*
X1338804Y1195338D01*
X1338590Y1195220D01*
X1338354Y1195116D01*
X1338347D01*
X1338326Y1195102D01*
X1338284Y1195095D01*
X1338236Y1195074D01*
X1338174Y1195053D01*
X1338097Y1195033D01*
X1338014Y1195012D01*
X1337917Y1194984D01*
X1337806Y1194963D01*
X1337688Y1194942D01*
X1337563Y1194922D01*
X1337432Y1194901D01*
X1337293Y1194880D01*
X1337147Y1194873D01*
X1336835Y1194859D01*
X1336828D01*
X1336801D01*
X1336766D01*
X1336710D01*
X1336648Y1194866D01*
X1336572D01*
X1336488Y1194873D01*
X1336398Y1194880D01*
X1336197Y1194901D01*
X1335982Y1194936D01*
X1335760Y1194977D01*
X1335538Y1195033D01*
X1335532D01*
X1335511Y1195040D01*
X1335483Y1195053D01*
X1335448Y1195060D01*
X1335400Y1195081D01*
X1335344Y1195102D01*
X1335213Y1195151D01*
X1335067Y1195213D01*
X1334908Y1195289D01*
X1334755Y1195372D01*
X1334609Y1195470D01*
X1334602D01*
X1334595Y1195483D01*
X1334575Y1195497D01*
X1334547Y1195518D01*
X1334485Y1195567D01*
X1334401Y1195643D01*
X1334304Y1195726D01*
X1334207Y1195823D01*
X1334117Y1195934D01*
X1334027Y1196052D01*
Y1196059D01*
X1334020Y1196066D01*
X1333992Y1196107D01*
X1333958Y1196177D01*
X1333909Y1196267D01*
X1333860Y1196378D01*
X1333805Y1196510D01*
X1333756Y1196662D01*
X1333708Y1196822D01*
Y1196829D01*
X1333701Y1196842D01*
Y1196863D01*
X1333694Y1196898D01*
X1333687Y1196940D01*
X1333673Y1196995D01*
X1333666Y1197050D01*
X1333659Y1197113D01*
X1333639Y1197265D01*
X1333618Y1197439D01*
X1333611Y1197633D01*
X1333604Y1197841D01*
Y1200150D01*
X1340004D01*
Y1197765D01*
D02*
G37*
G36*
X1335344Y1193181D02*
X1335337D01*
X1335317Y1193174D01*
X1335289Y1193167D01*
X1335247Y1193160D01*
X1335199Y1193154D01*
X1335136Y1193133D01*
X1335005Y1193098D01*
X1334859Y1193043D01*
X1334706Y1192966D01*
X1334568Y1192876D01*
X1334505Y1192821D01*
X1334443Y1192765D01*
Y1192758D01*
X1334429Y1192751D01*
X1334415Y1192730D01*
X1334394Y1192703D01*
X1334346Y1192634D01*
X1334297Y1192536D01*
X1334242Y1192419D01*
X1334193Y1192280D01*
X1334159Y1192127D01*
X1334152Y1192044D01*
X1334145Y1191954D01*
Y1191898D01*
X1334152Y1191857D01*
X1334159Y1191808D01*
X1334166Y1191753D01*
X1334200Y1191621D01*
X1334249Y1191469D01*
X1334283Y1191392D01*
X1334325Y1191309D01*
X1334374Y1191226D01*
X1334429Y1191150D01*
X1334491Y1191073D01*
X1334568Y1190997D01*
X1334575Y1190990D01*
X1334588Y1190983D01*
X1334609Y1190962D01*
X1334644Y1190935D01*
X1334693Y1190907D01*
X1334741Y1190872D01*
X1334803Y1190837D01*
X1334873Y1190796D01*
X1334949Y1190761D01*
X1335032Y1190726D01*
X1335129Y1190692D01*
X1335226Y1190664D01*
X1335337Y1190636D01*
X1335455Y1190616D01*
X1335573Y1190609D01*
X1335705Y1190602D01*
X1335712D01*
X1335733D01*
X1335767D01*
X1335816Y1190609D01*
X1335871Y1190616D01*
X1335941Y1190622D01*
X1336010Y1190636D01*
X1336093Y1190650D01*
X1336260Y1190692D01*
X1336440Y1190761D01*
X1336523Y1190803D01*
X1336606Y1190858D01*
X1336690Y1190914D01*
X1336766Y1190983D01*
X1336773Y1190990D01*
X1336780Y1190997D01*
X1336801Y1191025D01*
X1336828Y1191052D01*
X1336856Y1191087D01*
X1336891Y1191136D01*
X1336925Y1191184D01*
X1336967Y1191247D01*
X1337002Y1191316D01*
X1337036Y1191385D01*
X1337099Y1191559D01*
X1337126Y1191649D01*
X1337147Y1191753D01*
X1337154Y1191857D01*
X1337161Y1191968D01*
Y1192030D01*
X1337154Y1192106D01*
X1337140Y1192197D01*
X1337119Y1192308D01*
X1337085Y1192425D01*
X1337043Y1192543D01*
X1336981Y1192661D01*
X1336974Y1192675D01*
X1336953Y1192710D01*
X1336911Y1192765D01*
X1336863Y1192834D01*
X1336794Y1192904D01*
X1336717Y1192987D01*
X1336627Y1193063D01*
X1336530Y1193133D01*
X1336634Y1193868D01*
X1339921Y1193251D01*
Y1190068D01*
X1339172D01*
Y1192626D01*
X1337452Y1192966D01*
X1337459Y1192959D01*
X1337473Y1192939D01*
X1337487Y1192911D01*
X1337515Y1192869D01*
X1337543Y1192814D01*
X1337577Y1192751D01*
X1337619Y1192682D01*
X1337654Y1192599D01*
X1337688Y1192516D01*
X1337730Y1192419D01*
X1337792Y1192217D01*
X1337820Y1192106D01*
X1337841Y1191995D01*
X1337848Y1191878D01*
X1337855Y1191760D01*
Y1191725D01*
X1337848Y1191676D01*
Y1191621D01*
X1337834Y1191552D01*
X1337827Y1191469D01*
X1337806Y1191371D01*
X1337785Y1191274D01*
X1337751Y1191163D01*
X1337716Y1191052D01*
X1337667Y1190935D01*
X1337612Y1190817D01*
X1337543Y1190699D01*
X1337466Y1190581D01*
X1337376Y1190463D01*
X1337272Y1190352D01*
X1337265Y1190345D01*
X1337244Y1190324D01*
X1337210Y1190297D01*
X1337168Y1190262D01*
X1337113Y1190213D01*
X1337036Y1190165D01*
X1336960Y1190116D01*
X1336870Y1190061D01*
X1336766Y1190005D01*
X1336648Y1189957D01*
X1336530Y1189901D01*
X1336391Y1189860D01*
X1336253Y1189825D01*
X1336100Y1189797D01*
X1335941Y1189777D01*
X1335774Y1189770D01*
X1335767D01*
X1335733D01*
X1335691D01*
X1335629Y1189777D01*
X1335552Y1189783D01*
X1335469Y1189797D01*
X1335372Y1189811D01*
X1335261Y1189832D01*
X1335150Y1189860D01*
X1335025Y1189894D01*
X1334901Y1189936D01*
X1334776Y1189985D01*
X1334651Y1190040D01*
X1334519Y1190109D01*
X1334394Y1190186D01*
X1334276Y1190276D01*
X1334270Y1190283D01*
X1334242Y1190304D01*
X1334207Y1190338D01*
X1334159Y1190387D01*
X1334096Y1190449D01*
X1334034Y1190526D01*
X1333958Y1190616D01*
X1333888Y1190720D01*
X1333819Y1190831D01*
X1333743Y1190955D01*
X1333680Y1191094D01*
X1333625Y1191247D01*
X1333569Y1191406D01*
X1333535Y1191580D01*
X1333507Y1191760D01*
X1333500Y1191954D01*
Y1192037D01*
X1333507Y1192100D01*
X1333514Y1192176D01*
X1333528Y1192259D01*
X1333542Y1192356D01*
X1333562Y1192460D01*
X1333583Y1192571D01*
X1333618Y1192689D01*
X1333659Y1192807D01*
X1333708Y1192925D01*
X1333763Y1193043D01*
X1333826Y1193160D01*
X1333902Y1193271D01*
X1333985Y1193382D01*
X1333992Y1193389D01*
X1334006Y1193403D01*
X1334034Y1193431D01*
X1334075Y1193466D01*
X1334124Y1193514D01*
X1334179Y1193563D01*
X1334249Y1193611D01*
X1334332Y1193667D01*
X1334415Y1193722D01*
X1334512Y1193778D01*
X1334623Y1193826D01*
X1334734Y1193875D01*
X1334859Y1193923D01*
X1334991Y1193958D01*
X1335136Y1193986D01*
X1335282Y1194006D01*
X1335344Y1193181D01*
D02*
G37*
G36*
X1257454Y1197765D02*
X1257447Y1197695D01*
Y1197612D01*
X1257440Y1197529D01*
X1257433Y1197342D01*
X1257412Y1197155D01*
X1257392Y1196967D01*
X1257371Y1196884D01*
X1257357Y1196808D01*
Y1196801D01*
X1257350Y1196780D01*
X1257343Y1196752D01*
X1257329Y1196718D01*
X1257316Y1196669D01*
X1257302Y1196614D01*
X1257253Y1196482D01*
X1257191Y1196336D01*
X1257114Y1196184D01*
X1257017Y1196024D01*
X1256899Y1195872D01*
X1256892Y1195865D01*
X1256879Y1195851D01*
X1256858Y1195823D01*
X1256823Y1195788D01*
X1256781Y1195747D01*
X1256726Y1195698D01*
X1256671Y1195643D01*
X1256601Y1195587D01*
X1256525Y1195525D01*
X1256442Y1195463D01*
X1256352Y1195400D01*
X1256255Y1195338D01*
X1256040Y1195220D01*
X1255804Y1195116D01*
X1255797D01*
X1255776Y1195102D01*
X1255734Y1195095D01*
X1255686Y1195074D01*
X1255623Y1195053D01*
X1255547Y1195033D01*
X1255464Y1195012D01*
X1255367Y1194984D01*
X1255256Y1194963D01*
X1255138Y1194942D01*
X1255013Y1194922D01*
X1254882Y1194901D01*
X1254743Y1194880D01*
X1254597Y1194873D01*
X1254285Y1194859D01*
X1254278D01*
X1254251D01*
X1254216D01*
X1254160D01*
X1254098Y1194866D01*
X1254022D01*
X1253939Y1194873D01*
X1253848Y1194880D01*
X1253647Y1194901D01*
X1253432Y1194936D01*
X1253210Y1194977D01*
X1252989Y1195033D01*
X1252982D01*
X1252961Y1195040D01*
X1252933Y1195053D01*
X1252898Y1195060D01*
X1252850Y1195081D01*
X1252794Y1195102D01*
X1252663Y1195151D01*
X1252517Y1195213D01*
X1252357Y1195289D01*
X1252205Y1195372D01*
X1252059Y1195470D01*
X1252052D01*
X1252046Y1195483D01*
X1252025Y1195497D01*
X1251997Y1195518D01*
X1251935Y1195567D01*
X1251851Y1195643D01*
X1251754Y1195726D01*
X1251657Y1195823D01*
X1251567Y1195934D01*
X1251477Y1196052D01*
Y1196059D01*
X1251470Y1196066D01*
X1251442Y1196107D01*
X1251407Y1196177D01*
X1251359Y1196267D01*
X1251311Y1196378D01*
X1251255Y1196510D01*
X1251206Y1196662D01*
X1251158Y1196822D01*
Y1196829D01*
X1251151Y1196842D01*
Y1196863D01*
X1251144Y1196898D01*
X1251137Y1196940D01*
X1251123Y1196995D01*
X1251116Y1197050D01*
X1251109Y1197113D01*
X1251089Y1197265D01*
X1251068Y1197439D01*
X1251061Y1197633D01*
X1251054Y1197841D01*
Y1200150D01*
X1257454D01*
Y1197765D01*
D02*
G37*
G36*
X1254223Y1194041D02*
X1254278D01*
X1254348Y1194034D01*
X1254500Y1194027D01*
X1254673Y1194013D01*
X1254868Y1193993D01*
X1255076Y1193965D01*
X1255298Y1193923D01*
X1255519Y1193882D01*
X1255741Y1193826D01*
X1255963Y1193757D01*
X1256178Y1193680D01*
X1256386Y1193590D01*
X1256573Y1193479D01*
X1256740Y1193362D01*
X1256747Y1193355D01*
X1256775Y1193334D01*
X1256809Y1193299D01*
X1256858Y1193251D01*
X1256913Y1193195D01*
X1256976Y1193119D01*
X1257038Y1193036D01*
X1257107Y1192939D01*
X1257177Y1192828D01*
X1257239Y1192703D01*
X1257302Y1192571D01*
X1257357Y1192425D01*
X1257406Y1192273D01*
X1257440Y1192106D01*
X1257468Y1191933D01*
X1257475Y1191746D01*
Y1191670D01*
X1257468Y1191621D01*
X1257461Y1191559D01*
X1257454Y1191482D01*
X1257440Y1191399D01*
X1257420Y1191309D01*
X1257371Y1191108D01*
X1257336Y1191011D01*
X1257295Y1190900D01*
X1257246Y1190796D01*
X1257184Y1190699D01*
X1257121Y1190602D01*
X1257045Y1190505D01*
X1257038Y1190498D01*
X1257024Y1190484D01*
X1257003Y1190456D01*
X1256969Y1190428D01*
X1256927Y1190387D01*
X1256872Y1190345D01*
X1256809Y1190297D01*
X1256740Y1190248D01*
X1256664Y1190200D01*
X1256573Y1190151D01*
X1256476Y1190102D01*
X1256372Y1190054D01*
X1256262Y1190012D01*
X1256144Y1189978D01*
X1256019Y1189943D01*
X1255880Y1189922D01*
X1255818Y1190706D01*
X1255825D01*
X1255838Y1190713D01*
X1255859Y1190720D01*
X1255894Y1190726D01*
X1255977Y1190747D01*
X1256074Y1190782D01*
X1256185Y1190824D01*
X1256296Y1190879D01*
X1256400Y1190935D01*
X1256490Y1191004D01*
X1256497Y1191011D01*
X1256504Y1191018D01*
X1256525Y1191039D01*
X1256546Y1191059D01*
X1256601Y1191129D01*
X1256664Y1191226D01*
X1256726Y1191337D01*
X1256775Y1191475D01*
X1256816Y1191628D01*
X1256823Y1191711D01*
X1256830Y1191794D01*
Y1191857D01*
X1256816Y1191933D01*
X1256802Y1192023D01*
X1256775Y1192127D01*
X1256740Y1192238D01*
X1256684Y1192349D01*
X1256615Y1192460D01*
Y1192467D01*
X1256601Y1192474D01*
X1256587Y1192495D01*
X1256567Y1192523D01*
X1256504Y1192585D01*
X1256414Y1192668D01*
X1256303Y1192765D01*
X1256164Y1192862D01*
X1256005Y1192952D01*
X1255825Y1193043D01*
X1255818D01*
X1255804Y1193049D01*
X1255769Y1193063D01*
X1255727Y1193077D01*
X1255679Y1193091D01*
X1255610Y1193112D01*
X1255533Y1193133D01*
X1255450Y1193154D01*
X1255353Y1193174D01*
X1255242Y1193188D01*
X1255117Y1193209D01*
X1254986Y1193230D01*
X1254847Y1193244D01*
X1254694Y1193251D01*
X1254528Y1193258D01*
X1254362Y1193264D01*
X1254361Y1193264D01*
X1254355D01*
X1254362Y1193264D01*
X1254375Y1193251D01*
X1254396Y1193237D01*
X1254424Y1193216D01*
X1254500Y1193154D01*
X1254597Y1193077D01*
X1254701Y1192973D01*
X1254805Y1192855D01*
X1254902Y1192724D01*
X1254993Y1192578D01*
Y1192571D01*
X1254999Y1192557D01*
X1255013Y1192536D01*
X1255027Y1192509D01*
X1255041Y1192467D01*
X1255062Y1192425D01*
X1255104Y1192315D01*
X1255138Y1192183D01*
X1255173Y1192037D01*
X1255201Y1191878D01*
X1255208Y1191711D01*
Y1191676D01*
X1255201Y1191635D01*
Y1191580D01*
X1255187Y1191510D01*
X1255180Y1191434D01*
X1255159Y1191344D01*
X1255138Y1191247D01*
X1255104Y1191150D01*
X1255069Y1191039D01*
X1255020Y1190928D01*
X1254965Y1190817D01*
X1254895Y1190699D01*
X1254819Y1190588D01*
X1254729Y1190477D01*
X1254625Y1190373D01*
X1254618Y1190366D01*
X1254597Y1190352D01*
X1254569Y1190324D01*
X1254521Y1190283D01*
X1254465Y1190241D01*
X1254396Y1190200D01*
X1254313Y1190144D01*
X1254223Y1190096D01*
X1254119Y1190047D01*
X1254008Y1189992D01*
X1253883Y1189950D01*
X1253751Y1189901D01*
X1253613Y1189867D01*
X1253460Y1189839D01*
X1253301Y1189825D01*
X1253134Y1189818D01*
X1253127D01*
X1253106D01*
X1253079D01*
X1253030Y1189825D01*
X1252982D01*
X1252919Y1189832D01*
X1252843Y1189839D01*
X1252767Y1189853D01*
X1252593Y1189881D01*
X1252406Y1189929D01*
X1252212Y1189992D01*
X1252011Y1190082D01*
X1252004D01*
X1251990Y1190096D01*
X1251962Y1190109D01*
X1251928Y1190130D01*
X1251886Y1190158D01*
X1251837Y1190186D01*
X1251720Y1190269D01*
X1251595Y1190366D01*
X1251463Y1190491D01*
X1251331Y1190636D01*
X1251220Y1190796D01*
Y1190803D01*
X1251206Y1190817D01*
X1251193Y1190844D01*
X1251179Y1190879D01*
X1251158Y1190921D01*
X1251137Y1190969D01*
X1251109Y1191032D01*
X1251089Y1191094D01*
X1251033Y1191247D01*
X1250992Y1191427D01*
X1250964Y1191621D01*
X1250950Y1191829D01*
Y1191871D01*
X1250957Y1191926D01*
X1250964Y1191995D01*
X1250971Y1192079D01*
X1250992Y1192176D01*
X1251012Y1192280D01*
X1251040Y1192398D01*
X1251082Y1192523D01*
X1251123Y1192654D01*
X1251186Y1192786D01*
X1251255Y1192918D01*
X1251338Y1193056D01*
X1251435Y1193181D01*
X1251546Y1193313D01*
X1251671Y1193431D01*
X1251678Y1193438D01*
X1251706Y1193459D01*
X1251747Y1193486D01*
X1251810Y1193528D01*
X1251886Y1193577D01*
X1251983Y1193625D01*
X1252101Y1193680D01*
X1252240Y1193736D01*
X1252392Y1193798D01*
X1252566Y1193854D01*
X1252760Y1193902D01*
X1252975Y1193951D01*
X1253210Y1193993D01*
X1253467Y1194020D01*
X1253744Y1194041D01*
X1254043Y1194048D01*
X1254050D01*
X1254063D01*
X1254091D01*
X1254126D01*
X1254167D01*
X1254223Y1194041D01*
D02*
G37*
G36*
X971600Y1197765D02*
X971593Y1197695D01*
Y1197612D01*
X971586Y1197529D01*
X971579Y1197342D01*
X971559Y1197155D01*
X971538Y1196967D01*
X971517Y1196884D01*
X971503Y1196808D01*
Y1196801D01*
X971496Y1196780D01*
X971489Y1196752D01*
X971475Y1196718D01*
X971461Y1196669D01*
X971448Y1196614D01*
X971399Y1196482D01*
X971337Y1196336D01*
X971260Y1196184D01*
X971163Y1196024D01*
X971045Y1195872D01*
X971039Y1195865D01*
X971025Y1195851D01*
X971004Y1195823D01*
X970969Y1195788D01*
X970928Y1195747D01*
X970872Y1195698D01*
X970817Y1195643D01*
X970747Y1195587D01*
X970671Y1195525D01*
X970588Y1195463D01*
X970498Y1195400D01*
X970400Y1195338D01*
X970186Y1195220D01*
X969950Y1195116D01*
X969943D01*
X969922Y1195102D01*
X969881Y1195095D01*
X969832Y1195074D01*
X969770Y1195053D01*
X969693Y1195033D01*
X969610Y1195012D01*
X969513Y1194984D01*
X969402Y1194963D01*
X969284Y1194942D01*
X969159Y1194922D01*
X969028Y1194901D01*
X968889Y1194880D01*
X968743Y1194873D01*
X968431Y1194859D01*
X968424D01*
X968397D01*
X968362D01*
X968306D01*
X968244Y1194866D01*
X968168D01*
X968084Y1194873D01*
X967994Y1194880D01*
X967793Y1194901D01*
X967578Y1194936D01*
X967356Y1194977D01*
X967134Y1195033D01*
X967128D01*
X967107Y1195040D01*
X967079Y1195053D01*
X967044Y1195060D01*
X966996Y1195081D01*
X966940Y1195102D01*
X966809Y1195151D01*
X966663Y1195213D01*
X966504Y1195289D01*
X966351Y1195372D01*
X966205Y1195470D01*
X966198D01*
X966191Y1195483D01*
X966171Y1195497D01*
X966143Y1195518D01*
X966080Y1195567D01*
X965997Y1195643D01*
X965900Y1195726D01*
X965803Y1195823D01*
X965713Y1195934D01*
X965623Y1196052D01*
Y1196059D01*
X965616Y1196066D01*
X965588Y1196107D01*
X965554Y1196177D01*
X965505Y1196267D01*
X965456Y1196378D01*
X965401Y1196510D01*
X965352Y1196662D01*
X965304Y1196822D01*
Y1196829D01*
X965297Y1196842D01*
Y1196863D01*
X965290Y1196898D01*
X965283Y1196940D01*
X965269Y1196995D01*
X965262Y1197050D01*
X965255Y1197113D01*
X965235Y1197265D01*
X965214Y1197439D01*
X965207Y1197633D01*
X965200Y1197841D01*
Y1200150D01*
X971600D01*
Y1197765D01*
D02*
G37*
G36*
Y1191351D02*
Y1190706D01*
X967454D01*
Y1189839D01*
X966732D01*
Y1190706D01*
X965200D01*
Y1191489D01*
X966732D01*
Y1194277D01*
X967454D01*
X971600Y1191351D01*
D02*
G37*
G36*
X889161Y1197765D02*
X889154Y1197695D01*
Y1197612D01*
X889147Y1197529D01*
X889140Y1197342D01*
X889119Y1197154D01*
X889099Y1196967D01*
X889078Y1196884D01*
X889064Y1196808D01*
Y1196801D01*
X889057Y1196780D01*
X889050Y1196752D01*
X889036Y1196718D01*
X889022Y1196669D01*
X889008Y1196614D01*
X888960Y1196482D01*
X888898Y1196336D01*
X888821Y1196184D01*
X888724Y1196024D01*
X888606Y1195872D01*
X888599Y1195865D01*
X888586Y1195851D01*
X888565Y1195823D01*
X888530Y1195788D01*
X888488Y1195747D01*
X888433Y1195698D01*
X888378Y1195643D01*
X888308Y1195587D01*
X888232Y1195525D01*
X888149Y1195463D01*
X888058Y1195400D01*
X887962Y1195338D01*
X887747Y1195220D01*
X887511Y1195116D01*
X887504D01*
X887483Y1195102D01*
X887441Y1195095D01*
X887393Y1195074D01*
X887330Y1195053D01*
X887254Y1195033D01*
X887171Y1195012D01*
X887074Y1194984D01*
X886963Y1194963D01*
X886845Y1194942D01*
X886720Y1194922D01*
X886589Y1194901D01*
X886450Y1194880D01*
X886304Y1194873D01*
X885992Y1194859D01*
X885985D01*
X885957D01*
X885923D01*
X885867D01*
X885805Y1194866D01*
X885729D01*
X885645Y1194873D01*
X885555Y1194880D01*
X885354Y1194901D01*
X885139Y1194936D01*
X884917Y1194977D01*
X884696Y1195033D01*
X884688D01*
X884668Y1195040D01*
X884640Y1195053D01*
X884605Y1195060D01*
X884557Y1195081D01*
X884501Y1195102D01*
X884370Y1195151D01*
X884224Y1195213D01*
X884064Y1195289D01*
X883912Y1195372D01*
X883766Y1195470D01*
X883759D01*
X883752Y1195483D01*
X883732Y1195497D01*
X883704Y1195518D01*
X883642Y1195567D01*
X883558Y1195643D01*
X883461Y1195726D01*
X883364Y1195823D01*
X883274Y1195934D01*
X883184Y1196052D01*
Y1196059D01*
X883177Y1196066D01*
X883149Y1196107D01*
X883114Y1196177D01*
X883066Y1196267D01*
X883017Y1196378D01*
X882962Y1196510D01*
X882913Y1196662D01*
X882865Y1196822D01*
Y1196829D01*
X882858Y1196842D01*
Y1196863D01*
X882851Y1196898D01*
X882844Y1196939D01*
X882830Y1196995D01*
X882823Y1197050D01*
X882816Y1197113D01*
X882795Y1197265D01*
X882775Y1197439D01*
X882768Y1197633D01*
X882761Y1197841D01*
Y1200150D01*
X889161D01*
Y1197765D01*
D02*
G37*
G36*
X884557Y1193223D02*
X884550D01*
X884529Y1193216D01*
X884494Y1193209D01*
X884446Y1193195D01*
X884390Y1193181D01*
X884328Y1193167D01*
X884182Y1193119D01*
X884023Y1193056D01*
X883863Y1192980D01*
X883718Y1192883D01*
X883655Y1192828D01*
X883593Y1192772D01*
Y1192765D01*
X883579Y1192758D01*
X883565Y1192737D01*
X883544Y1192717D01*
X883503Y1192647D01*
X883447Y1192550D01*
X883392Y1192432D01*
X883350Y1192301D01*
X883316Y1192141D01*
X883302Y1191975D01*
Y1191919D01*
X883309Y1191878D01*
X883316Y1191836D01*
X883323Y1191774D01*
X883350Y1191649D01*
X883392Y1191496D01*
X883461Y1191337D01*
X883510Y1191260D01*
X883558Y1191184D01*
X883614Y1191108D01*
X883683Y1191032D01*
X883690Y1191025D01*
X883704Y1191018D01*
X883725Y1190997D01*
X883752Y1190969D01*
X883787Y1190941D01*
X883836Y1190914D01*
X883884Y1190879D01*
X883947Y1190837D01*
X884085Y1190768D01*
X884245Y1190713D01*
X884432Y1190664D01*
X884529Y1190657D01*
X884633Y1190650D01*
X884640D01*
X884654D01*
X884688D01*
X884723Y1190657D01*
X884772Y1190664D01*
X884820Y1190671D01*
X884945Y1190692D01*
X885091Y1190740D01*
X885236Y1190803D01*
X885313Y1190844D01*
X885382Y1190893D01*
X885451Y1190948D01*
X885521Y1191011D01*
X885528Y1191018D01*
X885535Y1191025D01*
X885555Y1191046D01*
X885576Y1191073D01*
X885604Y1191108D01*
X885632Y1191150D01*
X885701Y1191254D01*
X885763Y1191385D01*
X885819Y1191538D01*
X885860Y1191711D01*
X885867Y1191808D01*
X885874Y1191905D01*
Y1191947D01*
X885867Y1191995D01*
Y1192058D01*
X885854Y1192141D01*
X885840Y1192231D01*
X885819Y1192342D01*
X885791Y1192460D01*
X886478Y1192377D01*
Y1192363D01*
X886471Y1192328D01*
X886464Y1192287D01*
Y1192197D01*
X886471Y1192162D01*
Y1192113D01*
X886478Y1192065D01*
X886498Y1191947D01*
X886526Y1191808D01*
X886575Y1191656D01*
X886637Y1191496D01*
X886727Y1191344D01*
Y1191337D01*
X886741Y1191323D01*
X886755Y1191309D01*
X886776Y1191281D01*
X886838Y1191212D01*
X886928Y1191136D01*
X887039Y1191066D01*
X887178Y1190997D01*
X887254Y1190969D01*
X887344Y1190955D01*
X887434Y1190941D01*
X887532Y1190935D01*
X887539D01*
X887552D01*
X887573D01*
X887608Y1190941D01*
X887684Y1190948D01*
X887788Y1190969D01*
X887899Y1191004D01*
X888017Y1191059D01*
X888142Y1191136D01*
X888197Y1191177D01*
X888253Y1191233D01*
X888267Y1191247D01*
X888294Y1191288D01*
X888343Y1191351D01*
X888398Y1191434D01*
X888447Y1191545D01*
X888495Y1191676D01*
X888523Y1191822D01*
X888537Y1191989D01*
Y1192030D01*
X888530Y1192065D01*
Y1192106D01*
X888523Y1192148D01*
X888502Y1192259D01*
X888468Y1192377D01*
X888412Y1192509D01*
X888343Y1192633D01*
X888246Y1192758D01*
X888232Y1192772D01*
X888190Y1192807D01*
X888128Y1192862D01*
X888031Y1192918D01*
X887913Y1192987D01*
X887760Y1193049D01*
X887587Y1193105D01*
X887386Y1193147D01*
X887525Y1193930D01*
X887532D01*
X887559Y1193923D01*
X887601Y1193916D01*
X887656Y1193902D01*
X887719Y1193882D01*
X887795Y1193861D01*
X887878Y1193833D01*
X887968Y1193798D01*
X888169Y1193708D01*
X888267Y1193660D01*
X888371Y1193597D01*
X888468Y1193528D01*
X888565Y1193452D01*
X888662Y1193368D01*
X888745Y1193278D01*
X888752Y1193271D01*
X888766Y1193258D01*
X888787Y1193223D01*
X888814Y1193188D01*
X888849Y1193133D01*
X888884Y1193077D01*
X888925Y1193008D01*
X888967Y1192925D01*
X889002Y1192841D01*
X889043Y1192744D01*
X889078Y1192640D01*
X889112Y1192529D01*
X889140Y1192405D01*
X889161Y1192280D01*
X889175Y1192148D01*
X889182Y1192009D01*
Y1191919D01*
X889175Y1191871D01*
X889168Y1191822D01*
X889154Y1191690D01*
X889126Y1191545D01*
X889085Y1191378D01*
X889029Y1191212D01*
X888953Y1191046D01*
Y1191039D01*
X888946Y1191025D01*
X888932Y1191004D01*
X888912Y1190969D01*
X888863Y1190893D01*
X888794Y1190796D01*
X888703Y1190685D01*
X888599Y1190574D01*
X888482Y1190463D01*
X888343Y1190366D01*
X888336D01*
X888329Y1190359D01*
X888301Y1190345D01*
X888273Y1190331D01*
X888239Y1190310D01*
X888197Y1190290D01*
X888093Y1190248D01*
X887968Y1190206D01*
X887830Y1190165D01*
X887677Y1190137D01*
X887518Y1190130D01*
X887511D01*
X887497D01*
X887476D01*
X887448D01*
X887365Y1190144D01*
X887268Y1190158D01*
X887150Y1190186D01*
X887025Y1190227D01*
X886894Y1190283D01*
X886762Y1190359D01*
X886755D01*
X886748Y1190366D01*
X886706Y1190401D01*
X886644Y1190449D01*
X886568Y1190525D01*
X886478Y1190616D01*
X886387Y1190733D01*
X886304Y1190865D01*
X886221Y1191018D01*
Y1191011D01*
X886214Y1190990D01*
X886207Y1190962D01*
X886193Y1190921D01*
X886179Y1190879D01*
X886159Y1190824D01*
X886103Y1190692D01*
X886027Y1190553D01*
X885937Y1190407D01*
X885819Y1190262D01*
X885673Y1190137D01*
X885666Y1190130D01*
X885652Y1190123D01*
X885632Y1190109D01*
X885597Y1190089D01*
X885562Y1190061D01*
X885514Y1190033D01*
X885458Y1190005D01*
X885389Y1189978D01*
X885320Y1189950D01*
X885243Y1189922D01*
X885070Y1189867D01*
X884869Y1189832D01*
X884758Y1189818D01*
X884647D01*
X884640D01*
X884612D01*
X884564Y1189825D01*
X884508D01*
X884432Y1189839D01*
X884349Y1189853D01*
X884259Y1189867D01*
X884155Y1189894D01*
X884044Y1189929D01*
X883933Y1189971D01*
X883815Y1190019D01*
X883697Y1190082D01*
X883572Y1190151D01*
X883454Y1190234D01*
X883336Y1190324D01*
X883225Y1190435D01*
X883219Y1190442D01*
X883198Y1190463D01*
X883170Y1190498D01*
X883135Y1190546D01*
X883094Y1190602D01*
X883045Y1190678D01*
X882990Y1190761D01*
X882941Y1190858D01*
X882886Y1190962D01*
X882830Y1191080D01*
X882782Y1191205D01*
X882740Y1191344D01*
X882705Y1191489D01*
X882678Y1191642D01*
X882657Y1191801D01*
X882650Y1191975D01*
Y1192009D01*
X882657Y1192058D01*
Y1192113D01*
X882664Y1192190D01*
X882678Y1192273D01*
X882691Y1192363D01*
X882712Y1192467D01*
X882740Y1192578D01*
X882775Y1192689D01*
X882809Y1192807D01*
X882858Y1192925D01*
X882920Y1193043D01*
X882983Y1193154D01*
X883059Y1193271D01*
X883149Y1193375D01*
X883156Y1193382D01*
X883170Y1193396D01*
X883198Y1193424D01*
X883239Y1193465D01*
X883288Y1193507D01*
X883350Y1193556D01*
X883420Y1193604D01*
X883503Y1193660D01*
X883586Y1193715D01*
X883690Y1193771D01*
X883794Y1193826D01*
X883912Y1193875D01*
X884037Y1193916D01*
X884168Y1193958D01*
X884307Y1193986D01*
X884453Y1194006D01*
X884557Y1193223D01*
D02*
G37*
G36*
X806500Y1197765D02*
X806493Y1197695D01*
Y1197612D01*
X806486Y1197529D01*
X806479Y1197342D01*
X806459Y1197154D01*
X806438Y1196967D01*
X806417Y1196884D01*
X806403Y1196808D01*
Y1196801D01*
X806396Y1196780D01*
X806389Y1196752D01*
X806375Y1196718D01*
X806361Y1196669D01*
X806348Y1196614D01*
X806299Y1196482D01*
X806237Y1196336D01*
X806160Y1196184D01*
X806063Y1196024D01*
X805945Y1195872D01*
X805938Y1195865D01*
X805925Y1195851D01*
X805904Y1195823D01*
X805869Y1195788D01*
X805827Y1195747D01*
X805772Y1195698D01*
X805717Y1195643D01*
X805647Y1195587D01*
X805571Y1195525D01*
X805488Y1195463D01*
X805398Y1195400D01*
X805301Y1195338D01*
X805086Y1195220D01*
X804850Y1195116D01*
X804843D01*
X804822Y1195102D01*
X804781Y1195095D01*
X804732Y1195074D01*
X804669Y1195053D01*
X804593Y1195033D01*
X804510Y1195012D01*
X804413Y1194984D01*
X804302Y1194963D01*
X804184Y1194942D01*
X804059Y1194922D01*
X803928Y1194901D01*
X803789Y1194880D01*
X803643Y1194873D01*
X803331Y1194859D01*
X803324D01*
X803297D01*
X803262D01*
X803206D01*
X803144Y1194866D01*
X803068D01*
X802984Y1194873D01*
X802894Y1194880D01*
X802693Y1194901D01*
X802478Y1194936D01*
X802256Y1194977D01*
X802035Y1195033D01*
X802028D01*
X802007Y1195040D01*
X801979Y1195053D01*
X801944Y1195060D01*
X801896Y1195081D01*
X801840Y1195102D01*
X801709Y1195151D01*
X801563Y1195213D01*
X801404Y1195289D01*
X801251Y1195372D01*
X801105Y1195470D01*
X801098D01*
X801092Y1195483D01*
X801071Y1195497D01*
X801043Y1195518D01*
X800981Y1195567D01*
X800897Y1195643D01*
X800800Y1195726D01*
X800703Y1195823D01*
X800613Y1195934D01*
X800523Y1196052D01*
Y1196059D01*
X800516Y1196066D01*
X800488Y1196107D01*
X800453Y1196177D01*
X800405Y1196267D01*
X800357Y1196378D01*
X800301Y1196510D01*
X800253Y1196662D01*
X800204Y1196822D01*
Y1196829D01*
X800197Y1196842D01*
Y1196863D01*
X800190Y1196898D01*
X800183Y1196940D01*
X800169Y1196995D01*
X800162Y1197050D01*
X800155Y1197113D01*
X800135Y1197265D01*
X800114Y1197439D01*
X800107Y1197633D01*
X800100Y1197841D01*
Y1200150D01*
X806500D01*
Y1197765D01*
D02*
G37*
G36*
X800273Y1194110D02*
X800357Y1194103D01*
X800447Y1194083D01*
X800544Y1194062D01*
X800641Y1194027D01*
X800648D01*
X800662Y1194020D01*
X800682Y1194013D01*
X800717Y1193999D01*
X800752Y1193979D01*
X800800Y1193958D01*
X800911Y1193902D01*
X801043Y1193833D01*
X801189Y1193743D01*
X801341Y1193639D01*
X801494Y1193514D01*
X801501Y1193507D01*
X801515Y1193500D01*
X801535Y1193479D01*
X801570Y1193445D01*
X801605Y1193410D01*
X801653Y1193362D01*
X801709Y1193313D01*
X801771Y1193251D01*
X801840Y1193181D01*
X801910Y1193105D01*
X801993Y1193022D01*
X802076Y1192925D01*
X802166Y1192828D01*
X802256Y1192717D01*
X802354Y1192606D01*
X802458Y1192481D01*
X802465Y1192467D01*
X802499Y1192432D01*
X802541Y1192384D01*
X802603Y1192315D01*
X802673Y1192231D01*
X802756Y1192134D01*
X802846Y1192023D01*
X802950Y1191912D01*
X803165Y1191676D01*
X803394Y1191448D01*
X803505Y1191337D01*
X803615Y1191233D01*
X803720Y1191143D01*
X803817Y1191066D01*
X803824Y1191059D01*
X803837Y1191052D01*
X803865Y1191032D01*
X803900Y1191011D01*
X803948Y1190976D01*
X803997Y1190948D01*
X804122Y1190879D01*
X804267Y1190810D01*
X804427Y1190747D01*
X804593Y1190706D01*
X804677Y1190699D01*
X804760Y1190692D01*
X804767D01*
X804781D01*
X804808D01*
X804836Y1190699D01*
X804878D01*
X804926Y1190713D01*
X805030Y1190733D01*
X805155Y1190775D01*
X805287Y1190837D01*
X805356Y1190872D01*
X805418Y1190921D01*
X805481Y1190969D01*
X805543Y1191032D01*
X805550Y1191039D01*
X805557Y1191046D01*
X805571Y1191066D01*
X805592Y1191094D01*
X805620Y1191129D01*
X805647Y1191170D01*
X805710Y1191267D01*
X805765Y1191399D01*
X805821Y1191545D01*
X805855Y1191718D01*
X805869Y1191815D01*
Y1191968D01*
X805862Y1192009D01*
Y1192058D01*
X805848Y1192113D01*
X805827Y1192238D01*
X805786Y1192384D01*
X805723Y1192536D01*
X805682Y1192613D01*
X805640Y1192689D01*
X805585Y1192758D01*
X805522Y1192828D01*
X805516Y1192834D01*
X805509Y1192841D01*
X805488Y1192855D01*
X805460Y1192883D01*
X805425Y1192904D01*
X805384Y1192932D01*
X805335Y1192966D01*
X805280Y1192994D01*
X805217Y1193029D01*
X805148Y1193056D01*
X804982Y1193112D01*
X804801Y1193154D01*
X804697Y1193160D01*
X804586Y1193167D01*
X804669Y1193972D01*
X804683D01*
X804711Y1193965D01*
X804753Y1193958D01*
X804815Y1193951D01*
X804891Y1193937D01*
X804982Y1193916D01*
X805079Y1193895D01*
X805183Y1193861D01*
X805287Y1193826D01*
X805405Y1193784D01*
X805516Y1193729D01*
X805627Y1193674D01*
X805744Y1193604D01*
X805848Y1193528D01*
X805952Y1193445D01*
X806042Y1193348D01*
X806049Y1193341D01*
X806063Y1193320D01*
X806084Y1193292D01*
X806119Y1193251D01*
X806153Y1193195D01*
X806195Y1193126D01*
X806237Y1193049D01*
X806285Y1192959D01*
X806327Y1192862D01*
X806368Y1192751D01*
X806410Y1192633D01*
X806445Y1192502D01*
X806479Y1192363D01*
X806500Y1192217D01*
X806514Y1192058D01*
X806521Y1191891D01*
Y1191801D01*
X806514Y1191739D01*
X806507Y1191663D01*
X806493Y1191572D01*
X806479Y1191469D01*
X806459Y1191365D01*
X806431Y1191247D01*
X806396Y1191129D01*
X806355Y1191004D01*
X806306Y1190886D01*
X806244Y1190761D01*
X806174Y1190643D01*
X806098Y1190532D01*
X806008Y1190428D01*
X806001Y1190421D01*
X805987Y1190408D01*
X805952Y1190380D01*
X805918Y1190345D01*
X805869Y1190303D01*
X805807Y1190255D01*
X805737Y1190207D01*
X805654Y1190158D01*
X805571Y1190109D01*
X805474Y1190061D01*
X805370Y1190012D01*
X805259Y1189971D01*
X805134Y1189936D01*
X805009Y1189908D01*
X804878Y1189894D01*
X804739Y1189887D01*
X804732D01*
X804725D01*
X804704D01*
X804677D01*
X804600Y1189894D01*
X804503Y1189908D01*
X804385Y1189929D01*
X804260Y1189957D01*
X804122Y1189992D01*
X803983Y1190047D01*
X803976D01*
X803969Y1190054D01*
X803948Y1190061D01*
X803921Y1190075D01*
X803844Y1190116D01*
X803747Y1190172D01*
X803629Y1190248D01*
X803498Y1190338D01*
X803359Y1190442D01*
X803206Y1190574D01*
X803199Y1190581D01*
X803186Y1190588D01*
X803165Y1190616D01*
X803130Y1190643D01*
X803089Y1190685D01*
X803040Y1190733D01*
X802978Y1190789D01*
X802915Y1190858D01*
X802839Y1190941D01*
X802756Y1191032D01*
X802659Y1191129D01*
X802561Y1191240D01*
X802451Y1191357D01*
X802340Y1191489D01*
X802215Y1191635D01*
X802083Y1191787D01*
X802076Y1191794D01*
X802055Y1191815D01*
X802028Y1191857D01*
X801986Y1191898D01*
X801937Y1191961D01*
X801882Y1192023D01*
X801757Y1192169D01*
X801625Y1192321D01*
X801487Y1192467D01*
X801424Y1192536D01*
X801369Y1192599D01*
X801313Y1192654D01*
X801272Y1192696D01*
X801265Y1192703D01*
X801237Y1192730D01*
X801196Y1192765D01*
X801140Y1192814D01*
X801078Y1192869D01*
X801008Y1192925D01*
X800856Y1193036D01*
Y1189881D01*
X800100D01*
Y1194117D01*
X800114D01*
X800148D01*
X800204D01*
X800273Y1194110D01*
D02*
G37*
G36*
X723950Y1197765D02*
X723943Y1197695D01*
Y1197612D01*
X723936Y1197529D01*
X723929Y1197342D01*
X723908Y1197154D01*
X723888Y1196967D01*
X723867Y1196884D01*
X723853Y1196808D01*
Y1196801D01*
X723846Y1196780D01*
X723839Y1196752D01*
X723825Y1196718D01*
X723811Y1196669D01*
X723798Y1196614D01*
X723749Y1196482D01*
X723687Y1196336D01*
X723610Y1196184D01*
X723513Y1196024D01*
X723395Y1195872D01*
X723389Y1195865D01*
X723375Y1195851D01*
X723354Y1195823D01*
X723319Y1195788D01*
X723278Y1195747D01*
X723222Y1195698D01*
X723167Y1195643D01*
X723097Y1195587D01*
X723021Y1195525D01*
X722938Y1195463D01*
X722848Y1195400D01*
X722750Y1195338D01*
X722536Y1195220D01*
X722300Y1195116D01*
X722293D01*
X722272Y1195102D01*
X722231Y1195095D01*
X722182Y1195074D01*
X722120Y1195053D01*
X722043Y1195033D01*
X721960Y1195012D01*
X721863Y1194984D01*
X721752Y1194963D01*
X721634Y1194942D01*
X721509Y1194922D01*
X721378Y1194901D01*
X721239Y1194880D01*
X721093Y1194873D01*
X720781Y1194859D01*
X720774D01*
X720747D01*
X720712D01*
X720656D01*
X720594Y1194866D01*
X720518D01*
X720434Y1194873D01*
X720344Y1194880D01*
X720143Y1194901D01*
X719928Y1194936D01*
X719706Y1194977D01*
X719484Y1195033D01*
X719478D01*
X719457Y1195040D01*
X719429Y1195053D01*
X719394Y1195060D01*
X719346Y1195081D01*
X719290Y1195102D01*
X719159Y1195151D01*
X719013Y1195213D01*
X718854Y1195289D01*
X718701Y1195372D01*
X718555Y1195470D01*
X718548D01*
X718541Y1195483D01*
X718521Y1195497D01*
X718493Y1195518D01*
X718430Y1195567D01*
X718347Y1195643D01*
X718250Y1195726D01*
X718153Y1195823D01*
X718063Y1195934D01*
X717973Y1196052D01*
Y1196059D01*
X717966Y1196066D01*
X717938Y1196107D01*
X717904Y1196177D01*
X717855Y1196267D01*
X717806Y1196378D01*
X717751Y1196510D01*
X717702Y1196662D01*
X717654Y1196822D01*
Y1196829D01*
X717647Y1196842D01*
Y1196863D01*
X717640Y1196898D01*
X717633Y1196939D01*
X717619Y1196995D01*
X717612Y1197050D01*
X717605Y1197113D01*
X717585Y1197265D01*
X717564Y1197439D01*
X717557Y1197633D01*
X717550Y1197841D01*
Y1200150D01*
X723950D01*
Y1197765D01*
D02*
G37*
G36*
X722369Y1193403D02*
X722376Y1193382D01*
X722397Y1193348D01*
X722418Y1193299D01*
X722445Y1193244D01*
X722487Y1193174D01*
X722529Y1193098D01*
X722570Y1193022D01*
X722681Y1192841D01*
X722813Y1192647D01*
X722952Y1192446D01*
X723111Y1192259D01*
X723118Y1192252D01*
X723132Y1192238D01*
X723153Y1192210D01*
X723187Y1192176D01*
X723229Y1192141D01*
X723271Y1192093D01*
X723389Y1191989D01*
X723513Y1191871D01*
X723659Y1191753D01*
X723811Y1191649D01*
X723971Y1191559D01*
Y1191052D01*
X717550D01*
Y1191836D01*
X722549D01*
X722536Y1191850D01*
X722501Y1191885D01*
X722452Y1191947D01*
X722383Y1192037D01*
X722300Y1192141D01*
X722210Y1192273D01*
X722113Y1192418D01*
X722009Y1192585D01*
Y1192592D01*
X721995Y1192606D01*
X721981Y1192626D01*
X721967Y1192661D01*
X721939Y1192703D01*
X721918Y1192751D01*
X721856Y1192862D01*
X721794Y1192987D01*
X721724Y1193126D01*
X721662Y1193271D01*
X721606Y1193410D01*
X722362D01*
X722369Y1193403D01*
D02*
G37*
%LPC*%
G36*
X1050107Y1012764D02*
Y1010747D01*
X1052992D01*
X1050107Y1012764D01*
D02*
G37*
G36*
X1339248Y1199304D02*
X1334360D01*
Y1197834D01*
X1334367Y1197779D01*
Y1197716D01*
X1334374Y1197578D01*
X1334388Y1197418D01*
X1334408Y1197252D01*
X1334436Y1197092D01*
X1334471Y1196946D01*
Y1196940D01*
X1334478Y1196933D01*
X1334485Y1196912D01*
X1334491Y1196884D01*
X1334519Y1196822D01*
X1334554Y1196739D01*
X1334602Y1196648D01*
X1334658Y1196551D01*
X1334727Y1196454D01*
X1334803Y1196371D01*
X1334810Y1196364D01*
X1334817Y1196357D01*
X1334859Y1196322D01*
X1334928Y1196267D01*
X1335018Y1196198D01*
X1335136Y1196128D01*
X1335275Y1196052D01*
X1335435Y1195976D01*
X1335615Y1195906D01*
X1335622D01*
X1335636Y1195900D01*
X1335663Y1195892D01*
X1335705Y1195879D01*
X1335753Y1195865D01*
X1335816Y1195851D01*
X1335885Y1195837D01*
X1335961Y1195816D01*
X1336045Y1195802D01*
X1336142Y1195788D01*
X1336239Y1195775D01*
X1336350Y1195761D01*
X1336586Y1195740D01*
X1336849Y1195733D01*
X1336863D01*
X1336891D01*
X1336946D01*
X1337016Y1195740D01*
X1337099D01*
X1337196Y1195747D01*
X1337300Y1195761D01*
X1337418Y1195775D01*
X1337667Y1195816D01*
X1337924Y1195872D01*
X1338167Y1195955D01*
X1338284Y1196010D01*
X1338389Y1196066D01*
X1338395Y1196073D01*
X1338409Y1196080D01*
X1338437Y1196101D01*
X1338479Y1196128D01*
X1338520Y1196156D01*
X1338569Y1196198D01*
X1338680Y1196288D01*
X1338804Y1196406D01*
X1338922Y1196544D01*
X1339033Y1196697D01*
X1339075Y1196780D01*
X1339117Y1196870D01*
Y1196877D01*
X1339124Y1196884D01*
X1339130Y1196905D01*
X1339137Y1196933D01*
X1339144Y1196974D01*
X1339158Y1197016D01*
X1339172Y1197071D01*
X1339186Y1197134D01*
X1339193Y1197203D01*
X1339207Y1197286D01*
X1339221Y1197376D01*
X1339227Y1197474D01*
X1339234Y1197585D01*
X1339241Y1197702D01*
X1339248Y1197827D01*
Y1199304D01*
D02*
G37*
G36*
X1256698D02*
X1251810D01*
Y1197834D01*
X1251817Y1197779D01*
Y1197716D01*
X1251824Y1197578D01*
X1251837Y1197418D01*
X1251858Y1197252D01*
X1251886Y1197092D01*
X1251921Y1196946D01*
Y1196940D01*
X1251928Y1196933D01*
X1251935Y1196912D01*
X1251942Y1196884D01*
X1251969Y1196822D01*
X1252004Y1196739D01*
X1252052Y1196648D01*
X1252108Y1196551D01*
X1252177Y1196454D01*
X1252253Y1196371D01*
X1252260Y1196364D01*
X1252267Y1196357D01*
X1252309Y1196322D01*
X1252378Y1196267D01*
X1252468Y1196198D01*
X1252586Y1196128D01*
X1252725Y1196052D01*
X1252885Y1195976D01*
X1253065Y1195906D01*
X1253072D01*
X1253086Y1195900D01*
X1253113Y1195892D01*
X1253155Y1195879D01*
X1253204Y1195865D01*
X1253266Y1195851D01*
X1253335Y1195837D01*
X1253411Y1195816D01*
X1253495Y1195802D01*
X1253592Y1195788D01*
X1253689Y1195775D01*
X1253800Y1195761D01*
X1254036Y1195740D01*
X1254299Y1195733D01*
X1254313D01*
X1254341D01*
X1254396D01*
X1254465Y1195740D01*
X1254549D01*
X1254646Y1195747D01*
X1254750Y1195761D01*
X1254868Y1195775D01*
X1255117Y1195816D01*
X1255374Y1195872D01*
X1255617Y1195955D01*
X1255734Y1196010D01*
X1255838Y1196066D01*
X1255845Y1196073D01*
X1255859Y1196080D01*
X1255887Y1196101D01*
X1255929Y1196128D01*
X1255970Y1196156D01*
X1256019Y1196198D01*
X1256130Y1196288D01*
X1256255Y1196406D01*
X1256372Y1196544D01*
X1256483Y1196697D01*
X1256525Y1196780D01*
X1256567Y1196870D01*
Y1196877D01*
X1256573Y1196884D01*
X1256580Y1196905D01*
X1256587Y1196933D01*
X1256594Y1196974D01*
X1256608Y1197016D01*
X1256622Y1197071D01*
X1256636Y1197134D01*
X1256643Y1197203D01*
X1256657Y1197286D01*
X1256671Y1197376D01*
X1256677Y1197474D01*
X1256684Y1197585D01*
X1256691Y1197702D01*
X1256698Y1197827D01*
Y1199304D01*
D02*
G37*
G36*
X1253127Y1193147D02*
X1253120D01*
X1253106D01*
X1253086D01*
X1253058D01*
X1253023Y1193140D01*
X1252982D01*
X1252878Y1193126D01*
X1252760Y1193105D01*
X1252628Y1193077D01*
X1252489Y1193036D01*
X1252351Y1192980D01*
X1252344D01*
X1252337Y1192973D01*
X1252316Y1192959D01*
X1252288Y1192945D01*
X1252226Y1192911D01*
X1252143Y1192855D01*
X1252052Y1192786D01*
X1251962Y1192703D01*
X1251872Y1192613D01*
X1251789Y1192502D01*
Y1192495D01*
X1251782Y1192488D01*
X1251761Y1192446D01*
X1251727Y1192384D01*
X1251692Y1192301D01*
X1251657Y1192204D01*
X1251622Y1192093D01*
X1251602Y1191968D01*
X1251595Y1191843D01*
Y1191794D01*
X1251602Y1191760D01*
X1251609Y1191711D01*
X1251616Y1191663D01*
X1251643Y1191545D01*
X1251692Y1191413D01*
X1251727Y1191337D01*
X1251761Y1191267D01*
X1251810Y1191191D01*
X1251858Y1191122D01*
X1251921Y1191052D01*
X1251990Y1190983D01*
X1251997Y1190976D01*
X1252011Y1190969D01*
X1252032Y1190948D01*
X1252066Y1190928D01*
X1252108Y1190900D01*
X1252156Y1190872D01*
X1252212Y1190837D01*
X1252281Y1190803D01*
X1252351Y1190768D01*
X1252434Y1190733D01*
X1252524Y1190706D01*
X1252621Y1190678D01*
X1252725Y1190657D01*
X1252843Y1190636D01*
X1252961Y1190630D01*
X1253086Y1190622D01*
X1253092D01*
X1253113D01*
X1253148D01*
X1253197Y1190630D01*
X1253252Y1190636D01*
X1253314Y1190643D01*
X1253384Y1190650D01*
X1253460Y1190664D01*
X1253626Y1190706D01*
X1253800Y1190768D01*
X1253890Y1190810D01*
X1253973Y1190858D01*
X1254050Y1190914D01*
X1254126Y1190976D01*
X1254133Y1190983D01*
X1254140Y1190990D01*
X1254160Y1191011D01*
X1254188Y1191039D01*
X1254216Y1191073D01*
X1254251Y1191115D01*
X1254320Y1191219D01*
X1254389Y1191351D01*
X1254452Y1191503D01*
X1254500Y1191676D01*
X1254507Y1191774D01*
X1254514Y1191871D01*
Y1191919D01*
X1254507Y1191961D01*
X1254500Y1192002D01*
X1254493Y1192058D01*
X1254465Y1192183D01*
X1254417Y1192328D01*
X1254348Y1192481D01*
X1254306Y1192557D01*
X1254258Y1192634D01*
X1254195Y1192710D01*
X1254126Y1192779D01*
X1254119Y1192786D01*
X1254105Y1192793D01*
X1254084Y1192814D01*
X1254056Y1192834D01*
X1254022Y1192862D01*
X1253973Y1192897D01*
X1253918Y1192932D01*
X1253855Y1192959D01*
X1253793Y1192994D01*
X1253717Y1193029D01*
X1253543Y1193091D01*
X1253349Y1193133D01*
X1253238Y1193140D01*
X1253127Y1193147D01*
D02*
G37*
G36*
X970844Y1199304D02*
X965956D01*
Y1197834D01*
X965963Y1197779D01*
Y1197716D01*
X965970Y1197578D01*
X965983Y1197418D01*
X966004Y1197252D01*
X966032Y1197092D01*
X966067Y1196946D01*
Y1196940D01*
X966074Y1196933D01*
X966080Y1196912D01*
X966087Y1196884D01*
X966115Y1196822D01*
X966150Y1196739D01*
X966198Y1196648D01*
X966254Y1196551D01*
X966323Y1196454D01*
X966400Y1196371D01*
X966406Y1196364D01*
X966413Y1196357D01*
X966455Y1196322D01*
X966524Y1196267D01*
X966614Y1196198D01*
X966732Y1196128D01*
X966871Y1196052D01*
X967030Y1195976D01*
X967211Y1195906D01*
X967218D01*
X967232Y1195900D01*
X967259Y1195892D01*
X967301Y1195879D01*
X967349Y1195865D01*
X967412Y1195851D01*
X967481Y1195837D01*
X967558Y1195816D01*
X967641Y1195802D01*
X967738Y1195788D01*
X967835Y1195775D01*
X967946Y1195761D01*
X968182Y1195740D01*
X968445Y1195733D01*
X968459D01*
X968487D01*
X968542D01*
X968612Y1195740D01*
X968695D01*
X968792Y1195747D01*
X968896Y1195761D01*
X969014Y1195775D01*
X969263Y1195816D01*
X969520Y1195872D01*
X969763Y1195955D01*
X969881Y1196010D01*
X969985Y1196066D01*
X969991Y1196073D01*
X970005Y1196080D01*
X970033Y1196101D01*
X970075Y1196128D01*
X970116Y1196156D01*
X970165Y1196198D01*
X970276Y1196288D01*
X970400Y1196406D01*
X970518Y1196544D01*
X970629Y1196697D01*
X970671Y1196780D01*
X970713Y1196870D01*
Y1196877D01*
X970720Y1196884D01*
X970726Y1196905D01*
X970733Y1196933D01*
X970740Y1196974D01*
X970754Y1197016D01*
X970768Y1197071D01*
X970782Y1197134D01*
X970789Y1197203D01*
X970803Y1197286D01*
X970817Y1197376D01*
X970824Y1197474D01*
X970830Y1197585D01*
X970837Y1197702D01*
X970844Y1197827D01*
Y1199304D01*
D02*
G37*
G36*
X967454Y1193507D02*
Y1191489D01*
X970338D01*
X967454Y1193507D01*
D02*
G37*
G36*
X888405Y1199304D02*
X883517D01*
Y1197834D01*
X883524Y1197779D01*
Y1197716D01*
X883531Y1197578D01*
X883544Y1197418D01*
X883565Y1197252D01*
X883593Y1197092D01*
X883628Y1196946D01*
Y1196939D01*
X883634Y1196933D01*
X883642Y1196912D01*
X883648Y1196884D01*
X883676Y1196822D01*
X883711Y1196738D01*
X883759Y1196648D01*
X883815Y1196551D01*
X883884Y1196454D01*
X883960Y1196371D01*
X883967Y1196364D01*
X883974Y1196357D01*
X884016Y1196322D01*
X884085Y1196267D01*
X884175Y1196198D01*
X884293Y1196128D01*
X884432Y1196052D01*
X884591Y1195976D01*
X884772Y1195906D01*
X884779D01*
X884792Y1195899D01*
X884820Y1195892D01*
X884862Y1195879D01*
X884910Y1195865D01*
X884973Y1195851D01*
X885042Y1195837D01*
X885118Y1195816D01*
X885202Y1195802D01*
X885299Y1195788D01*
X885396Y1195775D01*
X885507Y1195761D01*
X885742Y1195740D01*
X886006Y1195733D01*
X886020D01*
X886048D01*
X886103D01*
X886172Y1195740D01*
X886256D01*
X886353Y1195747D01*
X886457Y1195761D01*
X886575Y1195775D01*
X886824Y1195816D01*
X887081Y1195872D01*
X887324Y1195955D01*
X887441Y1196010D01*
X887545Y1196066D01*
X887552Y1196073D01*
X887566Y1196080D01*
X887594Y1196100D01*
X887636Y1196128D01*
X887677Y1196156D01*
X887726Y1196198D01*
X887837Y1196288D01*
X887962Y1196406D01*
X888079Y1196544D01*
X888190Y1196697D01*
X888232Y1196780D01*
X888273Y1196870D01*
Y1196877D01*
X888280Y1196884D01*
X888287Y1196905D01*
X888294Y1196933D01*
X888301Y1196974D01*
X888315Y1197016D01*
X888329Y1197071D01*
X888343Y1197134D01*
X888350Y1197203D01*
X888364Y1197286D01*
X888378Y1197376D01*
X888384Y1197474D01*
X888391Y1197584D01*
X888398Y1197702D01*
X888405Y1197827D01*
Y1199304D01*
D02*
G37*
G36*
X805744Y1199304D02*
X800856D01*
Y1197834D01*
X800863Y1197779D01*
Y1197716D01*
X800870Y1197578D01*
X800883Y1197418D01*
X800904Y1197252D01*
X800932Y1197092D01*
X800967Y1196946D01*
Y1196940D01*
X800974Y1196933D01*
X800981Y1196912D01*
X800987Y1196884D01*
X801015Y1196822D01*
X801050Y1196739D01*
X801098Y1196648D01*
X801154Y1196551D01*
X801223Y1196454D01*
X801300Y1196371D01*
X801306Y1196364D01*
X801313Y1196357D01*
X801355Y1196322D01*
X801424Y1196267D01*
X801515Y1196198D01*
X801632Y1196128D01*
X801771Y1196052D01*
X801930Y1195976D01*
X802111Y1195906D01*
X802118D01*
X802132Y1195899D01*
X802159Y1195892D01*
X802201Y1195879D01*
X802250Y1195865D01*
X802312Y1195851D01*
X802381Y1195837D01*
X802458Y1195816D01*
X802541Y1195802D01*
X802638Y1195788D01*
X802735Y1195775D01*
X802846Y1195761D01*
X803082Y1195740D01*
X803345Y1195733D01*
X803359D01*
X803387D01*
X803442D01*
X803512Y1195740D01*
X803595D01*
X803692Y1195747D01*
X803796Y1195761D01*
X803914Y1195775D01*
X804163Y1195816D01*
X804420Y1195872D01*
X804663Y1195955D01*
X804781Y1196010D01*
X804884Y1196066D01*
X804891Y1196073D01*
X804905Y1196080D01*
X804933Y1196100D01*
X804975Y1196128D01*
X805016Y1196156D01*
X805065Y1196198D01*
X805176Y1196288D01*
X805301Y1196406D01*
X805418Y1196544D01*
X805529Y1196697D01*
X805571Y1196780D01*
X805613Y1196870D01*
Y1196877D01*
X805620Y1196884D01*
X805627Y1196905D01*
X805633Y1196933D01*
X805640Y1196974D01*
X805654Y1197016D01*
X805668Y1197071D01*
X805682Y1197134D01*
X805689Y1197203D01*
X805703Y1197286D01*
X805717Y1197376D01*
X805723Y1197474D01*
X805731Y1197584D01*
X805737Y1197702D01*
X805744Y1197827D01*
Y1199304D01*
D02*
G37*
G36*
X723194Y1199304D02*
X718306D01*
Y1197834D01*
X718313Y1197779D01*
Y1197716D01*
X718320Y1197578D01*
X718333Y1197418D01*
X718354Y1197252D01*
X718382Y1197092D01*
X718417Y1196946D01*
Y1196939D01*
X718424Y1196933D01*
X718430Y1196912D01*
X718438Y1196884D01*
X718465Y1196822D01*
X718500Y1196738D01*
X718548Y1196648D01*
X718604Y1196551D01*
X718673Y1196454D01*
X718749Y1196371D01*
X718756Y1196364D01*
X718763Y1196357D01*
X718805Y1196322D01*
X718874Y1196267D01*
X718964Y1196198D01*
X719082Y1196128D01*
X719221Y1196052D01*
X719380Y1195976D01*
X719561Y1195906D01*
X719568D01*
X719582Y1195899D01*
X719609Y1195892D01*
X719651Y1195879D01*
X719699Y1195865D01*
X719762Y1195851D01*
X719831Y1195837D01*
X719908Y1195816D01*
X719991Y1195802D01*
X720088Y1195788D01*
X720185Y1195775D01*
X720296Y1195761D01*
X720532Y1195740D01*
X720795Y1195733D01*
X720809D01*
X720837D01*
X720892D01*
X720962Y1195740D01*
X721045D01*
X721142Y1195747D01*
X721246Y1195761D01*
X721364Y1195775D01*
X721613Y1195816D01*
X721870Y1195872D01*
X722113Y1195955D01*
X722231Y1196010D01*
X722335Y1196066D01*
X722341Y1196073D01*
X722355Y1196080D01*
X722383Y1196100D01*
X722425Y1196128D01*
X722466Y1196156D01*
X722515Y1196198D01*
X722626Y1196288D01*
X722750Y1196406D01*
X722868Y1196544D01*
X722979Y1196697D01*
X723021Y1196780D01*
X723063Y1196870D01*
Y1196877D01*
X723070Y1196884D01*
X723076Y1196905D01*
X723083Y1196933D01*
X723090Y1196974D01*
X723104Y1197016D01*
X723118Y1197071D01*
X723132Y1197134D01*
X723139Y1197203D01*
X723153Y1197286D01*
X723167Y1197376D01*
X723174Y1197474D01*
X723180Y1197584D01*
X723187Y1197702D01*
X723194Y1197827D01*
Y1199304D01*
D02*
G37*
%LPD*%
D10*
X1032800Y1217200D02*
X1189700D01*
X1032800D02*
Y1246600D01*
X1189700D01*
Y1217200D02*
Y1246600D01*
X1118900Y990350D02*
Y1054350D01*
X1090900Y990350D02*
X1118900D01*
X1090900D02*
Y1054350D01*
X1118900D01*
M02*
