G04*
G04 #@! TF.GenerationSoftware,Altium Limited,Altium Designer,24.2.2 (26)*
G04*
G04 Layer_Color=2752767*
%FSLAX44Y44*%
%MOMM*%
G71*
G04*
G04 #@! TF.SameCoordinates,B633CA84-50E2-4AB7-B583-E53219F5B88E*
G04*
G04*
G04 #@! TF.FilePolarity,Positive*
G04*
G01*
G75*
%ADD15C,0.1270*%
%ADD53C,0.1693*%
D15*
X717550Y1125770D02*
X712470Y1135930D01*
X722630D01*
X717550Y1125770D01*
Y1035770D02*
X712470Y1045930D01*
X722630D01*
X717550Y1035770D01*
X1118870Y909650D02*
X1123950Y914730D01*
X1129030Y909650D01*
X1123950Y904570D01*
X1118870Y909650D01*
X1144270D02*
X1149350Y914730D01*
X1154430Y909650D01*
X1149350Y904570D01*
X1144270Y909650D01*
X1169670D02*
X1174750Y914730D01*
X1179830Y909650D01*
X1174750Y904570D01*
X1169670Y909650D01*
X1195070D02*
X1200150Y914730D01*
X1205230Y909650D01*
X1200150Y904570D01*
X1195070Y909650D01*
X1220470D02*
X1225550Y914730D01*
X1230630Y909650D01*
X1225550Y904570D01*
X1220470Y909650D01*
X1245870D02*
X1250950Y914730D01*
X1256030Y909650D01*
X1250950Y904570D01*
X1245870Y909650D01*
X1271270D02*
X1276350Y914730D01*
X1281430Y909650D01*
X1276350Y904570D01*
X1271270Y909650D01*
X1296670D02*
X1301750Y914730D01*
X1306830Y909650D01*
X1301750Y904570D01*
X1296670Y909650D01*
Y830250D02*
X1301750Y835330D01*
X1306830Y830250D01*
X1301750Y825170D01*
X1296670Y830250D01*
X1271270D02*
X1276350Y835330D01*
X1281430Y830250D01*
X1276350Y825170D01*
X1271270Y830250D01*
X1245870D02*
X1250950Y835330D01*
X1256030Y830250D01*
X1250950Y825170D01*
X1245870Y830250D01*
X1220470D02*
X1225550Y835330D01*
X1230630Y830250D01*
X1225550Y825170D01*
X1220470Y830250D01*
X1195070D02*
X1200150Y835330D01*
X1205230Y830250D01*
X1200150Y825170D01*
X1195070Y830250D01*
X1169670D02*
X1174750Y835330D01*
X1179830Y830250D01*
X1174750Y825170D01*
X1169670Y830250D01*
X1144270D02*
X1149350Y835330D01*
X1154430Y830250D01*
X1149350Y825170D01*
X1144270Y830250D01*
X1118870D02*
X1123950Y835330D01*
X1129030Y830250D01*
X1123950Y825170D01*
X1118870Y830250D01*
X1169670Y1226820D02*
X1172210Y1231900D01*
X1169670Y1236980D01*
X1174750Y1234440D01*
X1179830Y1236980D01*
X1177290Y1231900D01*
X1179830Y1226820D01*
X1174750Y1229360D01*
X1169670Y1226820D01*
X1144270D02*
X1146810Y1231900D01*
X1144270Y1236980D01*
X1149350Y1234440D01*
X1154430Y1236980D01*
X1151890Y1231900D01*
X1154430Y1226820D01*
X1149350Y1229360D01*
X1144270Y1226820D01*
X1118870D02*
X1121410Y1231900D01*
X1118870Y1236980D01*
X1123950Y1234440D01*
X1129030Y1236980D01*
X1126490Y1231900D01*
X1129030Y1226820D01*
X1123950Y1229360D01*
X1118870Y1226820D01*
X1093470D02*
X1096010Y1231900D01*
X1093470Y1236980D01*
X1098550Y1234440D01*
X1103630Y1236980D01*
X1101090Y1231900D01*
X1103630Y1226820D01*
X1098550Y1229360D01*
X1093470Y1226820D01*
X1068070D02*
X1070610Y1231900D01*
X1068070Y1236980D01*
X1073150Y1234440D01*
X1078230Y1236980D01*
X1075690Y1231900D01*
X1078230Y1226820D01*
X1073150Y1229360D01*
X1068070Y1226820D01*
X1042670D02*
X1045210Y1231900D01*
X1042670Y1236980D01*
X1047750Y1234440D01*
X1052830Y1236980D01*
X1050290Y1231900D01*
X1052830Y1226820D01*
X1047750Y1229360D01*
X1042670Y1226820D01*
X1099820Y1042270D02*
X1102360D01*
X1104900Y1044810D01*
X1107440Y1042270D01*
X1109980D01*
Y1044810D01*
X1107440Y1047350D01*
X1109980Y1049890D01*
Y1052430D01*
X1107440D01*
X1104900Y1049890D01*
X1102360Y1052430D01*
X1099820D01*
Y1049890D01*
X1102360Y1047350D01*
X1099820Y1044810D01*
Y1042270D01*
Y992270D02*
X1102360D01*
X1104900Y994810D01*
X1107440Y992270D01*
X1109980D01*
Y994810D01*
X1107440Y997350D01*
X1109980Y999890D01*
Y1002430D01*
X1107440D01*
X1104900Y999890D01*
X1102360Y1002430D01*
X1099820D01*
Y999890D01*
X1102360Y997350D01*
X1099820Y994810D01*
Y992270D01*
X1038860Y1089660D02*
Y1087120D01*
X1043940D01*
Y1089660D01*
X1046480D01*
Y1094740D01*
X1043940D01*
Y1097280D01*
X1038860D01*
Y1094740D01*
X1036320D01*
Y1089660D01*
X1038860D01*
X1064260D02*
Y1087120D01*
X1069340D01*
Y1089660D01*
X1071880D01*
Y1094740D01*
X1069340D01*
Y1097280D01*
X1064260D01*
Y1094740D01*
X1061720D01*
Y1089660D01*
X1064260D01*
X1089660D02*
Y1087120D01*
X1094740D01*
Y1089660D01*
X1097280D01*
Y1094740D01*
X1094740D01*
Y1097280D01*
X1089660D01*
Y1094740D01*
X1087120D01*
Y1089660D01*
X1089660D01*
X1042670Y1024570D02*
X1045210D01*
X1047750Y1027110D01*
X1050290Y1024570D01*
X1052830D01*
Y1027110D01*
X1050290Y1029650D01*
X1052830Y1032190D01*
Y1034730D01*
X1050290D01*
X1047750Y1032190D01*
X1045210Y1034730D01*
X1042670D01*
Y1032190D01*
X1045210Y1029650D01*
X1042670Y1027110D01*
Y1024570D01*
Y1004570D02*
X1045210D01*
X1047750Y1007110D01*
X1050290Y1004570D01*
X1052830D01*
Y1007110D01*
X1050290Y1009650D01*
X1052830Y1012190D01*
Y1014730D01*
X1050290D01*
X1047750Y1012190D01*
X1045210Y1014730D01*
X1042670D01*
Y1012190D01*
X1045210Y1009650D01*
X1042670Y1007110D01*
Y1004570D01*
X1168400Y1125770D02*
X1163320Y1135930D01*
X1173480D01*
X1168400Y1125770D01*
Y1035770D02*
X1163320Y1045930D01*
X1173480D01*
X1168400Y1035770D01*
X996950Y953770D02*
X999490Y956310D01*
X1002030D01*
X999490Y958850D01*
X1002030Y961390D01*
X999490D01*
X996950Y963930D01*
X994410Y961390D01*
X991870D01*
X994410Y958850D01*
X991870Y956310D01*
X994410D01*
X996950Y953770D01*
X971550D02*
X974090Y956310D01*
X976630D01*
X974090Y958850D01*
X976630Y961390D01*
X974090D01*
X971550Y963930D01*
X969010Y961390D01*
X966470D01*
X969010Y958850D01*
X966470Y956310D01*
X969010D01*
X971550Y953770D01*
X717550D02*
X720090Y956310D01*
X722630D01*
X720090Y958850D01*
X722630Y961390D01*
X720090D01*
X717550Y963930D01*
X715010Y961390D01*
X712470D01*
X715010Y958850D01*
X712470Y956310D01*
X715010D01*
X717550Y953770D01*
X692150D02*
X694690Y956310D01*
X697230D01*
X694690Y958850D01*
X697230Y961390D01*
X694690D01*
X692150Y963930D01*
X689610Y961390D01*
X687070D01*
X689610Y958850D01*
X687070Y956310D01*
X689610D01*
X692150Y953770D01*
X902970Y826770D02*
Y836930D01*
X913130D01*
Y826770D01*
X902970D01*
X928370D02*
Y836930D01*
X938530D01*
Y826770D01*
X928370D01*
X953770D02*
Y836930D01*
X963930D01*
Y826770D01*
X953770D01*
X979170D02*
Y836930D01*
X989330D01*
Y826770D01*
X979170D01*
X1004570D02*
Y836930D01*
X1014730D01*
Y826770D01*
X1004570D01*
X1029970D02*
Y836930D01*
X1040130D01*
Y826770D01*
X1029970D01*
X1055370D02*
Y836930D01*
X1065530D01*
Y826770D01*
X1055370D01*
X902970Y902970D02*
Y913130D01*
X913130D01*
Y902970D01*
X902970D01*
X928370D02*
Y913130D01*
X938530D01*
Y902970D01*
X928370D01*
X953770D02*
Y913130D01*
X963930D01*
Y902970D01*
X953770D01*
X979170D02*
Y913130D01*
X989330D01*
Y902970D01*
X979170D01*
X1004570D02*
Y913130D01*
X1014730D01*
Y902970D01*
X1004570D01*
X1029970D02*
Y913130D01*
X1040130D01*
Y902970D01*
X1029970D01*
X1055370D02*
Y913130D01*
X1065530D01*
Y902970D01*
X1055370D01*
X674370Y826770D02*
Y836930D01*
X684530D01*
Y826770D01*
X674370D01*
X699770D02*
Y836930D01*
X709930D01*
Y826770D01*
X699770D01*
X725170D02*
Y836930D01*
X735330D01*
Y826770D01*
X725170D01*
X750570D02*
Y836930D01*
X760730D01*
Y826770D01*
X750570D01*
X775970D02*
Y836930D01*
X786130D01*
Y826770D01*
X775970D01*
X801370D02*
Y836930D01*
X811530D01*
Y826770D01*
X801370D01*
X826770D02*
Y836930D01*
X836930D01*
Y826770D01*
X826770D01*
X674370Y902970D02*
Y913130D01*
X684530D01*
Y902970D01*
X674370D01*
X699770D02*
Y913130D01*
X709930D01*
Y902970D01*
X699770D01*
X725170D02*
Y913130D01*
X735330D01*
Y902970D01*
X725170D01*
X750570D02*
Y913130D01*
X760730D01*
Y902970D01*
X750570D01*
X775970D02*
Y913130D01*
X786130D01*
Y902970D01*
X775970D01*
X801370D02*
Y913130D01*
X811530D01*
Y902970D01*
X801370D01*
X826770D02*
Y913130D01*
X836930D01*
Y902970D01*
X826770D01*
X445770Y826770D02*
Y836930D01*
X455930D01*
Y826770D01*
X445770D01*
X471170D02*
Y836930D01*
X481330D01*
Y826770D01*
X471170D01*
X496570D02*
Y836930D01*
X506730D01*
Y826770D01*
X496570D01*
X521970D02*
Y836930D01*
X532130D01*
Y826770D01*
X521970D01*
X547370D02*
Y836930D01*
X557530D01*
Y826770D01*
X547370D01*
X572770D02*
Y836930D01*
X582930D01*
Y826770D01*
X572770D01*
X598170D02*
Y836930D01*
X608330D01*
Y826770D01*
X598170D01*
X445770Y902970D02*
Y913130D01*
X455930D01*
Y902970D01*
X445770D01*
X471170D02*
Y913130D01*
X481330D01*
Y902970D01*
X471170D01*
X496570D02*
Y913130D01*
X506730D01*
Y902970D01*
X496570D01*
X521970D02*
Y913130D01*
X532130D01*
Y902970D01*
X521970D01*
X547370D02*
Y913130D01*
X557530D01*
Y902970D01*
X547370D01*
X572770D02*
Y913130D01*
X582930D01*
Y902970D01*
X572770D01*
X598170D02*
Y913130D01*
X608330D01*
Y902970D01*
X598170D01*
X965200Y1125770D02*
X960120Y1135930D01*
X970280D01*
X965200Y1125770D01*
Y1035770D02*
X960120Y1045930D01*
X970280D01*
X965200Y1035770D01*
X1333500Y1125770D02*
X1328420Y1135930D01*
X1338580D01*
X1333500Y1125770D01*
Y1035770D02*
X1328420Y1045930D01*
X1338580D01*
X1333500Y1035770D01*
X1250950Y1125770D02*
X1245870Y1135930D01*
X1256030D01*
X1250950Y1125770D01*
Y1035770D02*
X1245870Y1045930D01*
X1256030D01*
X1250950Y1035770D01*
X882650Y1125770D02*
X877570Y1135930D01*
X887730D01*
X882650Y1125770D01*
Y1035770D02*
X877570Y1045930D01*
X887730D01*
X882650Y1035770D01*
X800100Y1125770D02*
X795020Y1135930D01*
X805180D01*
X800100Y1125770D01*
Y1035770D02*
X795020Y1045930D01*
X805180D01*
X800100Y1035770D01*
X629920Y1004570D02*
Y1014730D01*
X640080D01*
Y1004570D01*
X629920D01*
Y1029970D02*
Y1040130D01*
X640080D01*
Y1029970D01*
X629920D01*
Y1055370D02*
Y1065530D01*
X640080D01*
Y1055370D01*
X629920D01*
Y1080770D02*
Y1090930D01*
X640080D01*
Y1080770D01*
X629920D01*
X553720Y1004570D02*
Y1014730D01*
X563880D01*
Y1004570D01*
X553720D01*
Y1029970D02*
Y1040130D01*
X563880D01*
Y1029970D01*
X553720D01*
Y1055370D02*
Y1065530D01*
X563880D01*
Y1055370D01*
X553720D01*
Y1080770D02*
Y1090930D01*
X563880D01*
Y1080770D01*
X553720D01*
X629920Y1131570D02*
Y1141730D01*
X640080D01*
Y1131570D01*
X629920D01*
Y1156970D02*
Y1167130D01*
X640080D01*
Y1156970D01*
X629920D01*
Y1182370D02*
Y1192530D01*
X640080D01*
Y1182370D01*
X629920D01*
Y1207770D02*
Y1217930D01*
X640080D01*
Y1207770D01*
X629920D01*
X553720Y1131570D02*
Y1141730D01*
X563880D01*
Y1131570D01*
X553720D01*
Y1156970D02*
Y1167130D01*
X563880D01*
Y1156970D01*
X553720D01*
Y1182370D02*
Y1192530D01*
X563880D01*
Y1182370D01*
X553720D01*
Y1207770D02*
Y1217930D01*
X563880D01*
Y1207770D01*
X553720D01*
X521250Y953770D02*
X516170Y963930D01*
X526330D01*
X521250Y953770D01*
X431250D02*
X426170Y963930D01*
X436330D01*
X431250Y953770D01*
X521250Y1004570D02*
X516170Y1014730D01*
X526330D01*
X521250Y1004570D01*
X431250D02*
X426170Y1014730D01*
X436330D01*
X431250Y1004570D01*
X521250Y1055370D02*
X516170Y1065530D01*
X526330D01*
X521250Y1055370D01*
X431250D02*
X426170Y1065530D01*
X436330D01*
X431250Y1055370D01*
X521250Y1106170D02*
X516170Y1116330D01*
X526330D01*
X521250Y1106170D01*
X431250D02*
X426170Y1116330D01*
X436330D01*
X431250Y1106170D01*
X521250Y1156970D02*
X516170Y1167130D01*
X526330D01*
X521250Y1156970D01*
X431250D02*
X426170Y1167130D01*
X436330D01*
X431250Y1156970D01*
X521250Y1207770D02*
X516170Y1217930D01*
X526330D01*
X521250Y1207770D01*
X431250D02*
X426170Y1217930D01*
X436330D01*
X431250Y1207770D01*
X609600Y953770D02*
X612140Y956310D01*
X614680D01*
X612140Y958850D01*
X614680Y961390D01*
X612140D01*
X609600Y963930D01*
X607060Y961390D01*
X604520D01*
X607060Y958850D01*
X604520Y956310D01*
X607060D01*
X609600Y953770D01*
X584200D02*
X586740Y956310D01*
X589280D01*
X586740Y958850D01*
X589280Y961390D01*
X586740D01*
X584200Y963930D01*
X581660Y961390D01*
X579120D01*
X581660Y958850D01*
X579120Y956310D01*
X581660D01*
X584200Y953770D01*
X604520Y1125220D02*
Y1135380D01*
X614680D01*
Y1125220D01*
X604520D01*
X606552Y1127252D02*
Y1133348D01*
X612648D01*
Y1127252D01*
X606552D01*
X693420Y852170D02*
Y862330D01*
X703580D01*
Y852170D01*
X693420D01*
X695452Y854202D02*
Y860298D01*
X701548D01*
Y854202D01*
X695452D01*
X661465Y883715D02*
Y893875D01*
X671625D01*
Y883715D01*
X661465D01*
X663497Y885747D02*
Y891843D01*
X669593D01*
Y885747D01*
X663497D01*
X883920Y883920D02*
Y894080D01*
X894080D01*
Y883920D01*
X883920D01*
X885952Y885952D02*
Y892048D01*
X892048D01*
Y885952D01*
X885952D01*
X623570Y972820D02*
Y982980D01*
X633730D01*
Y972820D01*
X623570D01*
X625602Y974852D02*
Y980948D01*
X631698D01*
Y974852D01*
X625602D01*
X1131570Y1182370D02*
Y1192530D01*
X1141730D01*
Y1182370D01*
X1131570D01*
X1133602Y1184402D02*
Y1190498D01*
X1139698D01*
Y1184402D01*
X1133602D01*
X1144270Y1169670D02*
Y1179830D01*
X1154430D01*
Y1169670D01*
X1144270D01*
X1146302Y1171702D02*
Y1177798D01*
X1152398D01*
Y1171702D01*
X1146302D01*
X1131570Y1106170D02*
Y1116330D01*
X1141730D01*
Y1106170D01*
X1131570D01*
X1133602Y1108202D02*
Y1114298D01*
X1139698D01*
Y1108202D01*
X1133602D01*
X1144270Y1201420D02*
Y1211580D01*
X1154430D01*
Y1201420D01*
X1144270D01*
X1146302Y1203452D02*
Y1209548D01*
X1152398D01*
Y1203452D01*
X1146302D01*
X648970Y972820D02*
Y982980D01*
X659130D01*
Y972820D01*
X648970D01*
X651002Y974852D02*
Y980948D01*
X657098D01*
Y974852D01*
X651002D01*
X750570Y1055370D02*
Y1065530D01*
X760730D01*
Y1055370D01*
X750570D01*
X752602Y1057402D02*
Y1063498D01*
X758698D01*
Y1057402D01*
X752602D01*
X655320Y1055370D02*
Y1065530D01*
X665480D01*
Y1055370D01*
X655320D01*
X657352Y1057402D02*
Y1063498D01*
X663448D01*
Y1057402D01*
X657352D01*
X648970Y934720D02*
Y944880D01*
X659130D01*
Y934720D01*
X648970D01*
X651002Y936752D02*
Y942848D01*
X657098D01*
Y936752D01*
X651002D01*
X610870Y991870D02*
Y1002030D01*
X621030D01*
Y991870D01*
X610870D01*
X612902Y993902D02*
Y999998D01*
X618998D01*
Y993902D01*
X612902D01*
X610870Y1068070D02*
Y1078230D01*
X621030D01*
Y1068070D01*
X610870D01*
X612902Y1070102D02*
Y1076198D01*
X618998D01*
Y1070102D01*
X612902D01*
X579120Y1055370D02*
Y1065530D01*
X589280D01*
Y1055370D01*
X579120D01*
X581152Y1057402D02*
Y1063498D01*
X587248D01*
Y1057402D01*
X581152D01*
X534670Y953770D02*
Y963930D01*
X544830D01*
Y953770D01*
X534670D01*
X536702Y955802D02*
Y961898D01*
X542798D01*
Y955802D01*
X536702D01*
X572770Y979170D02*
Y989330D01*
X582930D01*
Y979170D01*
X572770D01*
X574802Y981202D02*
Y987298D01*
X580898D01*
Y981202D01*
X574802D01*
X591820Y1195070D02*
Y1205230D01*
X601980D01*
Y1195070D01*
X591820D01*
X593852Y1197102D02*
Y1203198D01*
X599948D01*
Y1197102D01*
X593852D01*
X871220Y902970D02*
Y913130D01*
X881380D01*
Y902970D01*
X871220D01*
X873252Y905002D02*
Y911098D01*
X879348D01*
Y905002D01*
X873252D01*
X1176020Y1150620D02*
Y1160780D01*
X1186180D01*
Y1150620D01*
X1176020D01*
X1178052Y1152652D02*
Y1158748D01*
X1184148D01*
Y1152652D01*
X1178052D01*
D53*
X1338580Y1212850D02*
G03*
X1338580Y1212850I-5080J0D01*
G01*
Y1187450D02*
G03*
X1338580Y1187450I-5080J0D01*
G01*
X1256030Y1212850D02*
G03*
X1256030Y1212850I-5080J0D01*
G01*
Y1187450D02*
G03*
X1256030Y1187450I-5080J0D01*
G01*
X970280Y1212850D02*
G03*
X970280Y1212850I-5080J0D01*
G01*
Y1187450D02*
G03*
X970280Y1187450I-5080J0D01*
G01*
X887730Y1212850D02*
G03*
X887730Y1212850I-5080J0D01*
G01*
Y1187450D02*
G03*
X887730Y1187450I-5080J0D01*
G01*
X805180Y1212850D02*
G03*
X805180Y1212850I-5080J0D01*
G01*
Y1187450D02*
G03*
X805180Y1187450I-5080J0D01*
G01*
X722630Y1212850D02*
G03*
X722630Y1212850I-5080J0D01*
G01*
Y1187450D02*
G03*
X722630Y1187450I-5080J0D01*
G01*
M02*
