G04*
G04 #@! TF.GenerationSoftware,Altium Limited,Altium Designer,24.2.2 (26)*
G04*
G04 Layer_Color=12632256*
%FSLAX44Y44*%
%MOMM*%
G71*
G04*
G04 #@! TF.SameCoordinates,B633CA84-50E2-4AB7-B583-E53219F5B88E*
G04*
G04*
G04 #@! TF.FilePolarity,Positive*
G04*
G01*
G75*
%ADD20R,1.5700X1.5700*%
%ADD21C,1.5700*%
%ADD22R,1.2000X1.2000*%
%ADD23C,1.2000*%
%ADD30R,1.9000X1.9000*%
%ADD31C,1.9000*%
%ADD37C,1.3500*%
%ADD38R,1.3500X1.3500*%
%ADD39C,1.1300*%
%ADD41R,1.6000X1.6000*%
%ADD42C,1.6000*%
%ADD43C,1.3000*%
%ADD44R,1.3000X1.3000*%
%ADD45R,1.5000X1.5000*%
%ADD46C,1.5000*%
%ADD47R,1.5000X1.5000*%
%ADD48R,1.3500X1.3500*%
D20*
X1174750Y1231900D02*
D03*
D21*
X1149350D02*
D03*
X1123950D02*
D03*
X1098550D02*
D03*
X1073150D02*
D03*
X1047750D02*
D03*
D22*
X1104900Y1047350D02*
D03*
X1047750Y1029650D02*
D03*
D23*
X1104900Y997350D02*
D03*
X1047750Y1009650D02*
D03*
D30*
X1333500Y1212850D02*
D03*
X1250950D02*
D03*
X965200D02*
D03*
X882650D02*
D03*
X800100D02*
D03*
X717550D02*
D03*
D31*
X1333500Y1187450D02*
D03*
X1250950D02*
D03*
X965200D02*
D03*
X882650D02*
D03*
X800100D02*
D03*
X717550D02*
D03*
D37*
Y1130850D02*
D03*
X1168400D02*
D03*
X965200D02*
D03*
X1333500D02*
D03*
X1250950D02*
D03*
X882650D02*
D03*
X800100D02*
D03*
X521250Y958850D02*
D03*
Y1009650D02*
D03*
Y1060450D02*
D03*
Y1111250D02*
D03*
Y1162050D02*
D03*
Y1212850D02*
D03*
D38*
X717550Y1040850D02*
D03*
X1168400D02*
D03*
X965200D02*
D03*
X1333500D02*
D03*
X1250950D02*
D03*
X882650D02*
D03*
X800100D02*
D03*
D39*
X1123950Y909650D02*
D03*
X1149350D02*
D03*
X1174750D02*
D03*
X1200150D02*
D03*
X1225550D02*
D03*
X1250950D02*
D03*
X1276350D02*
D03*
X1301750D02*
D03*
Y830250D02*
D03*
X1276350D02*
D03*
X1250950D02*
D03*
X1225550D02*
D03*
X1200150D02*
D03*
X1174750D02*
D03*
X1149350D02*
D03*
X1123950D02*
D03*
D41*
X1041400Y1092200D02*
D03*
D42*
X1066800D02*
D03*
X1092200D02*
D03*
D43*
X996950Y958850D02*
D03*
X717550D02*
D03*
X609600D02*
D03*
D44*
X971550D02*
D03*
X692150D02*
D03*
X584200D02*
D03*
D45*
X908050Y831850D02*
D03*
X679450D02*
D03*
X450850D02*
D03*
D46*
X933450D02*
D03*
X958850D02*
D03*
X984250D02*
D03*
X1009650D02*
D03*
X1035050D02*
D03*
X1060450D02*
D03*
X908050Y908050D02*
D03*
X933450D02*
D03*
X958850D02*
D03*
X984250D02*
D03*
X1009650D02*
D03*
X1035050D02*
D03*
X1060450D02*
D03*
X704850Y831850D02*
D03*
X730250D02*
D03*
X755650D02*
D03*
X781050D02*
D03*
X806450D02*
D03*
X831850D02*
D03*
X679450Y908050D02*
D03*
X704850D02*
D03*
X730250D02*
D03*
X755650D02*
D03*
X781050D02*
D03*
X806450D02*
D03*
X831850D02*
D03*
X476250Y831850D02*
D03*
X501650D02*
D03*
X527050D02*
D03*
X552450D02*
D03*
X577850D02*
D03*
X603250D02*
D03*
X450850Y908050D02*
D03*
X476250D02*
D03*
X501650D02*
D03*
X527050D02*
D03*
X552450D02*
D03*
X577850D02*
D03*
X603250D02*
D03*
X635000Y1009650D02*
D03*
Y1035050D02*
D03*
Y1060450D02*
D03*
Y1085850D02*
D03*
X558800Y1009650D02*
D03*
Y1035050D02*
D03*
Y1060450D02*
D03*
X635000Y1136650D02*
D03*
Y1162050D02*
D03*
Y1187450D02*
D03*
Y1212850D02*
D03*
X558800Y1136650D02*
D03*
Y1162050D02*
D03*
Y1187450D02*
D03*
D47*
Y1085850D02*
D03*
Y1212850D02*
D03*
D48*
X431250Y958850D02*
D03*
Y1009650D02*
D03*
Y1060450D02*
D03*
Y1111250D02*
D03*
Y1162050D02*
D03*
Y1212850D02*
D03*
M02*
