G04*
G04 #@! TF.GenerationSoftware,Altium Limited,Altium Designer,24.2.2 (26)*
G04*
G04 Layer_Color=32768*
%FSLAX44Y44*%
%MOMM*%
G71*
G04*
G04 #@! TF.SameCoordinates,B633CA84-50E2-4AB7-B583-E53219F5B88E*
G04*
G04*
G04 #@! TF.FilePolarity,Positive*
G04*
G01*
G75*
%ADD51C,0.1000*%
%ADD52C,0.0500*%
D51*
X717550Y1080850D02*
Y1090850D01*
X712550Y1085850D02*
X722550D01*
X1066800Y1087200D02*
Y1097200D01*
X1061800Y1092200D02*
X1071800D01*
X1168400Y1080850D02*
Y1090850D01*
X1163400Y1085850D02*
X1173400D01*
X984250Y953850D02*
Y963850D01*
X979250Y958850D02*
X989250D01*
X704850Y953850D02*
Y963850D01*
X699850Y958850D02*
X709850D01*
X984250Y864950D02*
Y874950D01*
X979250Y869950D02*
X989250D01*
X755650Y864950D02*
Y874950D01*
X750650Y869950D02*
X760650D01*
X527050Y864950D02*
Y874950D01*
X522050Y869950D02*
X532050D01*
X965200Y1080850D02*
Y1090850D01*
X960200Y1085850D02*
X970200D01*
X1333500Y1080850D02*
Y1090850D01*
X1328500Y1085850D02*
X1338500D01*
X1250950Y1080850D02*
Y1090850D01*
X1245950Y1085850D02*
X1255950D01*
X882650Y1080850D02*
Y1090850D01*
X877650Y1085850D02*
X887650D01*
X800100Y1080850D02*
Y1090850D01*
X795100Y1085850D02*
X805100D01*
X596900Y1042750D02*
Y1052750D01*
X591900Y1047750D02*
X601900D01*
X596900Y1169750D02*
Y1179750D01*
X591900Y1174750D02*
X601900D01*
X471250Y958850D02*
X481250D01*
X476250Y953850D02*
Y963850D01*
X471250Y1009650D02*
X481250D01*
X476250Y1004650D02*
Y1014650D01*
X471250Y1060450D02*
X481250D01*
X476250Y1055450D02*
Y1065450D01*
X471250Y1111250D02*
X481250D01*
X476250Y1106250D02*
Y1116250D01*
X471250Y1162050D02*
X481250D01*
X476250Y1157050D02*
Y1167050D01*
X471250Y1212850D02*
X481250D01*
X476250Y1207850D02*
Y1217850D01*
X596900Y953850D02*
Y963850D01*
X591900Y958850D02*
X601900D01*
D52*
X704550Y1033100D02*
X730550D01*
Y1138600D01*
X704550Y1033100D02*
Y1138600D01*
X730550D01*
X1111900Y822100D02*
X1313800D01*
X1111900Y917800D02*
X1313800D01*
Y822100D02*
Y917800D01*
X1111900Y822100D02*
Y917800D01*
X1012800Y1068100D02*
X1120800D01*
X1012800Y1121600D02*
X1120800D01*
X1012800Y1068100D02*
Y1121600D01*
X1120800Y1068100D02*
Y1121600D01*
X1155400Y1033100D02*
X1181400D01*
Y1138600D01*
X1155400Y1033100D02*
Y1138600D01*
X1181400D01*
X1004450Y945150D02*
Y972550D01*
X964050Y945150D02*
X1004450D01*
X964050D02*
Y972550D01*
X1004450D01*
X725050Y945150D02*
Y972550D01*
X684650Y945150D02*
X725050D01*
X684650D02*
Y972550D01*
X725050D01*
X883250Y821450D02*
X1085250D01*
X883250Y918450D02*
X1085250D01*
X883250Y821450D02*
Y918450D01*
X1085250Y821450D02*
Y918450D01*
X654650Y821450D02*
X856650D01*
X654650Y918450D02*
X856650D01*
X654650Y821450D02*
Y918450D01*
X856650Y821450D02*
Y918450D01*
X426050Y821450D02*
X628050D01*
X426050Y918450D02*
X628050D01*
X426050Y821450D02*
Y918450D01*
X628050Y821450D02*
Y918450D01*
X952200Y1033100D02*
X978200D01*
Y1138600D01*
X952200Y1033100D02*
Y1138600D01*
X978200D01*
X1320500Y1033100D02*
X1346500D01*
Y1138600D01*
X1320500Y1033100D02*
Y1138600D01*
X1346500D01*
X1237950Y1033100D02*
X1263950D01*
Y1138600D01*
X1237950Y1033100D02*
Y1138600D01*
X1263950D01*
X869650Y1033100D02*
X895650D01*
Y1138600D01*
X869650Y1033100D02*
Y1138600D01*
X895650D01*
X787100Y1033100D02*
X813100D01*
Y1138600D01*
X787100Y1033100D02*
Y1138600D01*
X813100D01*
X548400Y994250D02*
X645400D01*
X548400Y1101250D02*
X645400D01*
Y994250D02*
Y1101250D01*
X548400Y994250D02*
Y1101250D01*
Y1121250D02*
X645400D01*
X548400Y1228250D02*
X645400D01*
Y1121250D02*
Y1228250D01*
X548400Y1121250D02*
Y1228250D01*
X423500Y945850D02*
Y971850D01*
Y945850D02*
X529000D01*
X423500Y971850D02*
X529000D01*
Y945850D02*
Y971850D01*
X423500Y996650D02*
Y1022650D01*
Y996650D02*
X529000D01*
X423500Y1022650D02*
X529000D01*
Y996650D02*
Y1022650D01*
X423500Y1047450D02*
Y1073450D01*
Y1047450D02*
X529000D01*
X423500Y1073450D02*
X529000D01*
Y1047450D02*
Y1073450D01*
X423500Y1098250D02*
Y1124250D01*
Y1098250D02*
X529000D01*
X423500Y1124250D02*
X529000D01*
Y1098250D02*
Y1124250D01*
X423500Y1149050D02*
Y1175050D01*
Y1149050D02*
X529000D01*
X423500Y1175050D02*
X529000D01*
Y1149050D02*
Y1175050D01*
X423500Y1199850D02*
Y1225850D01*
Y1199850D02*
X529000D01*
X423500Y1225850D02*
X529000D01*
Y1199850D02*
Y1225850D01*
X617100Y945150D02*
Y972550D01*
X576700Y945150D02*
X617100D01*
X576700D02*
Y972550D01*
X617100D01*
M02*
