G04*
G04 #@! TF.GenerationSoftware,Altium Limited,Altium Designer,24.2.2 (26)*
G04*
G04 Layer_Color=32768*
%FSLAX44Y44*%
%MOMM*%
G71*
G04*
G04 #@! TF.SameCoordinates,B633CA84-50E2-4AB7-B583-E53219F5B88E*
G04*
G04*
G04 #@! TF.FilePolarity,Positive*
G04*
G01*
G75*
%ADD10C,0.2000*%
D10*
X1047750Y991150D02*
G03*
X1047750Y1048150I0J28500D01*
G01*
D02*
G03*
X1047750Y991150I0J-28500D01*
G01*
X1333500Y1168400D02*
G03*
X1333500Y1231900I0J31750D01*
G01*
D02*
G03*
X1333500Y1168400I0J-31750D01*
G01*
X1250950D02*
G03*
X1250950Y1231900I0J31750D01*
G01*
D02*
G03*
X1250950Y1168400I0J-31750D01*
G01*
X965200D02*
G03*
X965200Y1231900I0J31750D01*
G01*
D02*
G03*
X965200Y1168400I0J-31750D01*
G01*
X882650D02*
G03*
X882650Y1231900I0J31750D01*
G01*
D02*
G03*
X882650Y1168400I0J-31750D01*
G01*
X800100D02*
G03*
X800100Y1231900I0J31750D01*
G01*
D02*
G03*
X800100Y1168400I0J-31750D01*
G01*
X717550D02*
G03*
X717550Y1231900I0J31750D01*
G01*
D02*
G03*
X717550Y1168400I0J-31750D01*
G01*
X1032800Y1217200D02*
X1189700D01*
X1032800D02*
Y1246600D01*
X1189700D01*
Y1217200D02*
Y1246600D01*
X1118900Y990350D02*
Y1054350D01*
X1090900Y990350D02*
X1118900D01*
X1090900D02*
Y1054350D01*
X1118900D01*
M02*
