G04*
G04 #@! TF.GenerationSoftware,Altium Limited,Altium Designer,24.2.2 (26)*
G04*
G04 Layer_Color=16711935*
%FSLAX44Y44*%
%MOMM*%
G71*
G04*
G04 #@! TF.SameCoordinates,B633CA84-50E2-4AB7-B583-E53219F5B88E*
G04*
G04*
G04 #@! TF.FilePolarity,Positive*
G04*
G01*
G75*
%ADD13C,0.1500*%
%ADD50C,0.1778*%
D13*
X977334Y839470D02*
X987331D01*
X989330Y841469D01*
Y845468D01*
X987331Y847467D01*
X977334D01*
Y859464D02*
Y851466D01*
X983332D01*
X981333Y855465D01*
Y857464D01*
X983332Y859464D01*
X987331D01*
X989330Y857464D01*
Y853465D01*
X987331Y851466D01*
X748734Y839470D02*
X758731D01*
X760730Y841469D01*
Y845468D01*
X758731Y847467D01*
X748734D01*
X750733Y851466D02*
X748734Y853465D01*
Y857464D01*
X750733Y859464D01*
X752733D01*
X754732Y857464D01*
Y855465D01*
Y857464D01*
X756731Y859464D01*
X758731D01*
X760730Y857464D01*
Y853465D01*
X758731Y851466D01*
X520134Y839470D02*
X530131D01*
X532130Y841469D01*
Y845468D01*
X530131Y847467D01*
X520134D01*
X532130Y857464D02*
X520134D01*
X526132Y851466D01*
Y859464D01*
D50*
X581660Y1052827D02*
Y1044363D01*
X583353Y1042670D01*
X586738D01*
X588431Y1044363D01*
Y1052827D01*
X598588Y1042670D02*
X591817D01*
X598588Y1049441D01*
Y1051134D01*
X596895Y1052827D01*
X593509D01*
X591817Y1051134D01*
X581660Y1179827D02*
Y1171363D01*
X583353Y1169670D01*
X586738D01*
X588431Y1171363D01*
Y1179827D01*
X591817Y1169670D02*
X595202D01*
X593509D01*
Y1179827D01*
X591817Y1178134D01*
M02*
